<?xml version="1.0" encoding="utf-8"?>
<!-- Generator: Adobe Illustrator 16.0.4, SVG Export Plug-In . SVG Version: 6.00 Build 0)  -->
<!DOCTYPE svg PUBLIC "-//W3C//DTD SVG 1.1//EN" "http://www.w3.org/Graphics/SVG/1.1/DTD/svg11.dtd">
<svg version="1.1" id="Calque_1" xmlns="http://www.w3.org/2000/svg" xmlns:xlink="http://www.w3.org/1999/xlink" x="0px" y="0px"
	 width="427.332px" height="244.667px" viewBox="0 0 427.332 244.667" enable-background="new 0 0 427.332 244.667"
	 xml:space="preserve">
<path fill="#C1272D" d="M196.419,32.914C81.339,56.76-4.374,112.66,4.974,157.77c9.348,45.108,110.215,62.345,225.295,38.499
	c115.078-23.846,200.791-79.745,191.443-124.854C412.365,26.305,311.498,9.068,196.419,32.914L196.419,32.914z M206.393,185.623
	c-97.65,20.234-183.271,5.473-191.237-32.974c-7.967-38.446,64.737-86.015,162.389-106.25
	c97.65-20.235,183.271-5.473,191.236,32.972C376.748,117.817,304.043,165.388,206.393,185.623L206.393,185.623z"/>
<circle cx="214.344" cy="111.5" r="69.863"/>
<path fill="#FFFFFF" d="M199.469,114.74c5.838,25.807,16.999,48.165,30.849,64.471c5.482-20.68,5.934-45.664,0.096-71.471
	c-5.839-25.807-16.999-48.165-30.85-64.473C194.081,63.948,193.631,88.935,199.469,114.74z"/>
<g enable-background="new    ">
	<path d="M16.558,239.294c-1.2,1.32-2.808,1.968-4.56,1.968c-1.776,0-3.216-0.624-4.272-1.68c-1.608-1.608-1.704-3.097-1.704-7.009
		s0.096-5.4,1.704-7.009c1.056-1.056,2.496-1.68,4.272-1.68c3.216,0,5.497,2.16,5.977,5.112h-1.824
		c-0.48-2.185-2.016-3.48-4.152-3.48c-1.176,0-2.184,0.408-2.952,1.2c-1.08,1.104-1.2,2.353-1.2,5.856c0,3.505,0.12,4.753,1.2,5.856
		c0.768,0.792,1.776,1.2,2.952,1.2c1.248,0,2.448-0.504,3.24-1.464c0.696-0.864,0.96-1.8,0.96-3.097v-1.319h-4.2v-1.561h6.024v2.712
		C18.023,236.871,17.663,238.071,16.558,239.294z"/>
	<path d="M26.254,241.119v-17.09h10.609v1.633h-8.785v6.024h7.489v1.632h-7.489v6.169h8.785v1.632H26.254z"/>
	<path d="M54.214,239.583c-1.056,1.056-2.472,1.68-4.248,1.68c-1.776,0-3.216-0.624-4.272-1.68
		c-1.608-1.608-1.704-3.097-1.704-7.009s0.096-5.4,1.704-7.009c1.056-1.056,2.496-1.68,4.272-1.68c1.776,0,3.192,0.624,4.248,1.68
		c1.608,1.608,1.729,3.097,1.729,7.009S55.823,237.974,54.214,239.583z M52.918,226.717c-0.792-0.792-1.8-1.2-2.952-1.2
		c-1.152,0-2.16,0.408-2.952,1.2c-1.08,1.104-1.2,2.353-1.2,5.856c0,3.505,0.12,4.753,1.2,5.856c0.792,0.792,1.8,1.2,2.952,1.2
		c1.152,0,2.16-0.408,2.952-1.2c1.08-1.104,1.2-2.352,1.2-5.856C54.118,229.07,53.998,227.822,52.918,226.717z"/>
	<path d="M74.181,241.119v-17.09h1.824v17.09H74.181z"/>
	<path d="M95.83,241.119l-9.073-13.705v13.705h-1.824v-17.09h1.728l9.073,13.657v-13.657h1.824v17.09H95.83z"/>
	<path d="M111.501,225.662v15.457h-1.824v-15.457h-4.944v-1.633h11.713v1.633H111.501z"/>
	<path d="M123.62,241.119v-17.09h10.609v1.633h-8.785v6.024h7.489v1.632h-7.489v6.169h8.785v1.632H123.62z"/>
	<path d="M142.004,241.119v-17.09h1.824v15.458h8.737v1.632H142.004z"/>
	<path d="M159.74,241.119v-17.09h1.824v15.458h8.737v1.632H159.74z"/>
	<path d="M177.476,241.119v-17.09h1.824v17.09H177.476z"/>
	<path d="M198.117,239.294c-1.2,1.32-2.808,1.968-4.56,1.968c-1.776,0-3.216-0.624-4.272-1.68c-1.608-1.608-1.704-3.097-1.704-7.009
		s0.096-5.4,1.704-7.009c1.056-1.056,2.496-1.68,4.272-1.68c3.216,0,5.497,2.16,5.977,5.112h-1.824
		c-0.48-2.185-2.016-3.48-4.152-3.48c-1.176,0-2.184,0.408-2.952,1.2c-1.08,1.104-1.2,2.353-1.2,5.856c0,3.505,0.12,4.753,1.2,5.856
		c0.768,0.792,1.776,1.2,2.952,1.2c1.248,0,2.448-0.504,3.24-1.464c0.696-0.864,0.96-1.8,0.96-3.097v-1.319h-4.2v-1.561h6.024v2.712
		C199.581,236.871,199.221,238.071,198.117,239.294z"/>
	<path d="M207.812,241.119v-17.09h10.609v1.633h-8.785v6.024h7.489v1.632h-7.489v6.169h8.785v1.632H207.812z"/>
	<path d="M237.093,241.119l-9.073-13.705v13.705h-1.824v-17.09h1.729l9.072,13.657v-13.657h1.824v17.09H237.093z"/>
	<path d="M252.764,225.662v15.457h-1.824v-15.457h-4.943v-1.633h11.713v1.633H252.764z"/>
	<path d="M279.668,241.119h-1.488l-5.617-17.09h1.921l4.44,13.825l4.44-13.825h1.92L279.668,241.119z"/>
	<path d="M291.931,241.119v-17.09h1.824v17.09H291.931z"/>
	<path d="M302.683,241.119v-17.09h10.608v1.633h-8.784v6.024h7.489v1.632h-7.489v6.169h8.784v1.632H302.683z"/>
	<path d="M334.34,241.119h-1.705l-3.791-13.682l-3.793,13.682h-1.704l-4.368-17.09h1.943l3.337,13.777l3.769-13.777h1.632
		l3.769,13.777l3.336-13.777h1.944L334.34,241.119z"/>
	<path d="M345.547,241.119v-17.09h10.608v1.633h-8.784v6.024h7.488v1.632h-7.488v6.169h8.784v1.632H345.547z"/>
	<path d="M373.747,241.119l-3.888-7.585h-4.105v7.585h-1.824v-17.09h6.553c2.977,0,5.064,1.801,5.064,4.753
		c0,2.496-1.512,4.128-3.72,4.584l4.056,7.753H373.747z M370.315,225.662h-4.561v6.265h4.561c1.992,0,3.408-1.032,3.408-3.121
		C373.723,226.717,372.307,225.662,370.315,225.662z"/>
</g>
<g enable-background="new    ">
	<path d="M412.145,241.191c-0.816,0-1.428-0.24-1.955-0.768l0.611-0.612c0.312,0.312,0.635,0.564,1.344,0.564
		c1.115,0,1.75-0.708,1.75-1.968v-5.828h0.912v5.948C414.807,240.171,413.703,241.191,412.145,241.191z"/>
	<path d="M421.348,241.191c-1.271,0-2.123-0.324-2.915-1.128l0.612-0.611c0.707,0.708,1.367,0.924,2.326,0.924
		c1.26,0,2.027-0.576,2.027-1.584c0-0.455-0.133-0.815-0.42-1.067c-0.264-0.239-0.504-0.323-1.115-0.419l-0.996-0.145
		c-0.672-0.107-1.176-0.312-1.559-0.647c-0.432-0.384-0.66-0.911-0.66-1.607c0-1.451,1.043-2.398,2.734-2.398
		c1.092,0,1.812,0.288,2.543,0.936l-0.588,0.588c-0.516-0.492-1.104-0.744-1.99-0.744c-1.152,0-1.812,0.636-1.812,1.596
		c0,0.42,0.12,0.768,0.384,0.995s0.672,0.372,1.115,0.444l0.996,0.155c0.791,0.12,1.163,0.264,1.547,0.612
		c0.455,0.396,0.719,0.971,0.719,1.679C424.297,240.267,423.135,241.191,421.348,241.191z"/>
</g>
<g enable-background="new    ">
	<path d="M16.246,19.713c-1.056,1.056-2.472,1.68-4.248,1.68c-1.776,0-3.216-0.624-4.272-1.68c-1.608-1.608-1.704-3.097-1.704-7.009
		s0.096-5.4,1.704-7.009c1.056-1.056,2.496-1.68,4.272-1.68c1.776,0,3.192,0.624,4.248,1.68c1.608,1.608,1.729,3.097,1.729,7.009
		S17.855,18.105,16.246,19.713z M14.95,6.848c-0.792-0.792-1.8-1.2-2.952-1.2c-1.152,0-2.16,0.408-2.952,1.2
		c-1.08,1.104-1.2,2.353-1.2,5.856c0,3.505,0.12,4.753,1.2,5.856c0.792,0.792,1.8,1.2,2.952,1.2c1.152,0,2.16-0.408,2.952-1.2
		c1.08-1.104,1.2-2.352,1.2-5.856C16.151,9.201,16.031,7.953,14.95,6.848z"/>
	<path d="M30.646,21.393c-2.544,0-4.249-0.647-5.833-2.256l1.224-1.224c1.416,1.416,2.736,1.848,4.656,1.848
		c2.52,0,4.056-1.152,4.056-3.168c0-0.912-0.264-1.632-0.84-2.137c-0.528-0.479-1.008-0.647-2.232-0.84l-1.992-0.288
		c-1.344-0.216-2.352-0.624-3.12-1.296c-0.864-0.768-1.32-1.824-1.32-3.216c0-2.904,2.088-4.801,5.472-4.801
		c2.184,0,3.625,0.576,5.088,1.872l-1.176,1.176c-1.032-0.983-2.208-1.488-3.984-1.488c-2.304,0-3.625,1.272-3.625,3.192
		c0,0.841,0.24,1.536,0.768,1.992c0.528,0.456,1.344,0.744,2.232,0.889l1.992,0.312c1.584,0.24,2.328,0.528,3.096,1.225
		c0.912,0.792,1.44,1.944,1.44,3.36C36.551,19.545,34.222,21.393,30.646,21.393z"/>
	<path d="M49.678,21.393c-1.776,0-3.216-0.624-4.272-1.68c-1.608-1.608-1.704-3.097-1.704-7.009s0.096-5.4,1.704-7.009
		c1.056-1.056,2.496-1.68,4.272-1.68c3.096,0,5.328,1.896,5.928,5.088h-1.872c-0.456-2.111-1.92-3.456-4.056-3.456
		c-1.152,0-2.16,0.408-2.952,1.2c-1.08,1.104-1.2,2.353-1.2,5.856c0,3.505,0.12,4.753,1.2,5.856c0.792,0.792,1.8,1.2,2.952,1.2
		c2.136,0,3.648-1.344,4.104-3.456h1.824C55.006,19.498,52.75,21.393,49.678,21.393z"/>
	<path d="M73.343,21.25l-1.368-3.864H64.51l-1.368,3.864h-1.944l6.289-17.09h1.536l6.265,17.09H73.343z M68.278,6.776l-3.216,9.025
		h6.385L68.278,6.776z"/>
	<path d="M91.846,21.25l-3.888-7.585h-4.104v7.585h-1.824V4.16h6.553c2.976,0,5.064,1.801,5.064,4.753
		c0,2.496-1.512,4.128-3.72,4.584l4.056,7.753H91.846z M88.414,5.792h-4.561v6.265h4.561c1.992,0,3.408-1.032,3.408-3.121
		C91.822,6.848,90.406,5.792,88.414,5.792z"/>
	<path d="M106.15,21.393c-2.544,0-4.249-0.647-5.833-2.256l1.224-1.224c1.416,1.416,2.736,1.848,4.656,1.848
		c2.52,0,4.056-1.152,4.056-3.168c0-0.912-0.264-1.632-0.84-2.137c-0.528-0.479-1.008-0.647-2.232-0.84l-1.992-0.288
		c-1.344-0.216-2.352-0.624-3.12-1.296c-0.864-0.768-1.32-1.824-1.32-3.216c0-2.904,2.088-4.801,5.472-4.801
		c2.184,0,3.625,0.576,5.088,1.872l-1.176,1.176c-1.032-0.983-2.208-1.488-3.984-1.488c-2.304,0-3.625,1.272-3.625,3.192
		c0,0.841,0.24,1.536,0.768,1.992c0.528,0.456,1.344,0.744,2.232,0.889l1.992,0.312c1.584,0.24,2.328,0.528,3.096,1.225
		c0.912,0.792,1.44,1.944,1.44,3.36C112.054,19.545,109.726,21.393,106.15,21.393z"/>
</g>
<g enable-background="new    ">
	<path d="M136.723,21.322c-1.271,0-2.123-0.324-2.915-1.128l0.612-0.611c0.708,0.708,1.367,0.924,2.327,0.924
		c1.259,0,2.027-0.576,2.027-1.584c0-0.455-0.132-0.815-0.42-1.067c-0.264-0.239-0.503-0.323-1.115-0.419l-0.996-0.145
		c-0.671-0.107-1.175-0.312-1.559-0.647c-0.432-0.384-0.66-0.911-0.66-1.607c0-1.451,1.043-2.398,2.735-2.398
		c1.091,0,1.811,0.288,2.542,0.936l-0.588,0.588c-0.516-0.492-1.104-0.744-1.991-0.744c-1.151,0-1.811,0.636-1.811,1.596
		c0,0.42,0.12,0.768,0.384,0.995s0.671,0.372,1.115,0.444l0.996,0.155c0.792,0.12,1.164,0.264,1.547,0.612
		c0.456,0.396,0.719,0.971,0.719,1.679C139.673,20.398,138.51,21.322,136.723,21.322z"/>
	<path d="M148.553,21.25l-0.684-1.931h-3.73l-0.684,1.931h-0.971l3.142-8.539h0.768l3.13,8.539H148.553z M146.023,14.017
		l-1.607,4.51h3.19L146.023,14.017z"/>
</g>
</svg>
