<?xml version="1.0" encoding="utf-8"?>
<!-- Generator: Adobe Illustrator 16.0.4, SVG Export Plug-In . SVG Version: 6.00 Build 0)  -->
<!DOCTYPE svg PUBLIC "-//W3C//DTD SVG 1.1//EN" "http://www.w3.org/Graphics/SVG/1.1/DTD/svg11.dtd">
<svg version="1.1" xmlns="http://www.w3.org/2000/svg" xmlns:xlink="http://www.w3.org/1999/xlink" x="0px" y="0px"
	 width="427.333px" height="244.667px" viewBox="0 0 427.333 244.667" enable-background="new 0 0 427.333 244.667"
	 xml:space="preserve">
<g id="modèle" display="none">
	
		<image display="inline" overflow="visible" width="2362" height="1181" xlink:href="grand_logo_ombre.png"  transform="matrix(0.24 -1.824002e-05 1.824002e-05 0.24 -73.5288 -25.2021)">
	</image>
</g>
<g id="Cercle">
	<g>
		<path fill="#C1272D" d="M196.419,32.914C81.339,56.76-4.374,112.66,4.974,157.77c9.348,45.109,110.215,62.345,225.295,38.499
			c115.078-23.846,200.791-79.745,191.443-124.854C412.366,26.305,311.498,9.068,196.419,32.914z M206.393,185.622
			c-97.651,20.235-183.271,5.473-191.237-32.973c-7.967-38.446,64.737-86.015,162.388-106.25
			c97.651-20.235,183.271-5.473,191.237,32.972C376.748,117.817,304.043,165.388,206.393,185.622z"/>
	</g>
</g>
<g id="Calque_3" display="none">
	<g display="inline">
		<path fill-rule="evenodd" clip-rule="evenodd" d="M287.739,171.895c-1.083-0.154-2.396-0.288-3.687-0.538
			c-1.482-0.289-2.404-1.158-2.938-2.654c-3.318-9.293-6.722-18.555-10.058-27.841c-0.322-0.901-0.753-1.2-1.72-1.196
			c-9.136,0.041-18.271,0.042-27.408,0c-0.985-0.005-1.369,0.328-1.685,1.223c-3.294,9.354-6.68,18.678-9.93,28.047
			c-0.644,1.854-1.803,2.866-3.592,3.026c-2.058,0.185-4.155,0.234-6.209,0.047c-2.226-0.202-2.652-1.098-1.855-3.15
			c9.832-25.357,19.674-50.711,29.489-76.075c0.725-1.873,2.045-2.907,3.929-3.318c2.429-0.531,4.847-0.522,7.23,0.256
			c1.498,0.488,2.503,1.471,3.109,2.944c8.175,19.86,16.385,39.708,24.542,59.574c2.169,5.281,4.198,10.621,6.282,15.938
			c0.611,1.562,0.136,2.569-1.467,3.154c-0.299,0.108-0.614,0.191-0.93,0.23C289.894,171.68,288.939,171.769,287.739,171.895z
			 M267.45,130.624c-4.021-9.516-8.003-18.936-12.092-28.615c-3.797,9.726-7.467,19.128-11.169,28.615
			C252.019,130.624,259.657,130.624,267.45,130.624z"/>
		<path fill-rule="evenodd" clip-rule="evenodd" d="M311.548,137.844c-0.021,0.467-0.047,0.778-0.049,1.091
			c-0.055,9.934-0.108,19.868-0.16,29.803c-0.012,2.259-0.565,3.14-2.813,3.383c-1.879,0.202-3.835,0.114-5.708-0.166
			c-1.723-0.256-2.233-1.135-2.219-2.882c0.031-3.844,0.118-7.688,0.117-11.531c-0.002-4.162-0.112-8.326-0.115-12.49
			c-0.014-18.113-0.006-36.225-0.006-54.338c0-0.512,0-1.025,0-1.602c0.326-0.036,0.554-0.083,0.782-0.082
			c10.778,0.022,21.558,0.003,32.336,0.1c3.848,0.035,7.678,0.5,11.355,1.736c8.959,3.011,13.526,9.548,14.693,18.664
			c0.588,4.578,0.19,9.11-1.391,13.495c-1.475,4.094-4.032,7.334-7.657,9.736c-0.323,0.213-0.643,0.434-0.884,0.597
			c1.559,1.439,3.189,2.744,4.578,4.27c2.955,3.252,4.292,7.196,4.319,11.551c0.044,6.811,0,13.622-0.018,20.434
			c-0.004,1.745-0.543,2.657-2.259,2.85c-2.037,0.23-4.144,0.237-6.175-0.015c-1.8-0.224-2.314-1.123-2.303-2.929
			c0.036-5.967-0.026-11.938,0.158-17.9c0.179-5.682-4.093-13.071-12.443-13.72c-1.779-0.139-3.577-0.052-5.366-0.053
			c-5.77-0.005-11.54-0.002-17.311-0.002C312.574,137.844,312.136,137.844,311.548,137.844z M311.571,128.143
			c0.542,0,1.012,0,1.481,0c5.527,0,11.056,0.058,16.582-0.027c2.271-0.035,4.565-0.221,6.799-0.617
			c3.869-0.687,7.375-2.186,9.797-5.499c2.194-2.999,2.641-6.454,2.501-10.046c-0.23-5.897-4.059-11.013-9.454-12.384
			c-1.688-0.428-3.48-0.592-5.229-0.617c-7.086-0.104-14.175-0.107-21.264-0.142c-0.387-0.002-0.774,0.042-1.213,0.067
			C311.571,108.652,311.571,118.323,311.571,128.143z"/>
		<path fill-rule="evenodd" clip-rule="evenodd" d="M22.849,172.821c-8.672-0.237-16.783-2.084-23.846-7.376
			c-4.336-3.25-7.753-7.318-10.196-12.13c-4.324-8.516-6.023-17.564-5.239-27.101c0.57-6.938,2.036-13.615,5.426-19.752
			c6.127-11.091,15.565-17.23,28.129-18.619c7.831-0.866,15.437-0.073,22.643,3.281c9.622,4.479,16.188,11.837,19.481,21.857
			c4.485,13.637,4.138,27.148-2.468,40.114c-5.3,10.403-14.168,16.229-25.383,18.652C28.601,172.351,25.701,172.476,22.849,172.821z
			 M-5.483,131.071c0.316,2.94,0.48,5.906,0.979,8.814c1.196,6.981,4.399,12.911,9.817,17.544c4.21,3.602,9.237,5.119,14.664,5.613
			c7.335,0.666,13.98-1.222,19.914-5.479c2.958-2.121,5.099-5.047,6.806-8.253c2.548-4.789,3.633-9.975,3.96-15.337
			c0.399-6.527,0.031-12.997-2.297-19.176c-1.971-5.231-4.829-9.82-9.696-13.01c-6.042-3.959-12.576-5.346-19.678-4.581
			c-9.407,1.013-16.221,5.733-20.368,14.226C-4.402,117.615-5.223,124.26-5.483,131.071z"/>
		<path fill-rule="evenodd" clip-rule="evenodd" d="M104.047,172.859c-6.972-0.335-13.782-1.17-20.049-4.433
			c-7.066-3.679-11.726-9.295-13.392-17.201c-0.479-2.268,0.001-3.116,2.134-4.027c1.915-0.819,3.891-0.865,5.883-0.398
			c1.074,0.252,1.952,0.854,2.156,2.014c0.863,4.899,3.745,8.284,8.084,10.388c8.308,4.026,16.954,4.83,25.787,1.988
			c4.32-1.389,7.562-4.141,9.09-8.578c1.595-4.632,0.162-9.355-3.715-12.354c-2.882-2.229-6.257-3.371-9.708-4.289
			c-5.915-1.574-11.867-3.007-17.774-4.607c-3.519-0.953-6.888-2.314-10.058-4.173c-13.869-8.129-12.36-26.388-0.755-34.243
			c4.352-2.946,9.233-4.399,14.377-4.985c6.758-0.77,13.458-0.402,19.925,1.863c7.02,2.459,12.183,6.974,14.67,14.145
			c0.503,1.45,0.586,3.05,0.825,4.586c0.171,1.107-0.401,1.852-1.338,2.321c-2.105,1.054-4.333,1.415-6.652,0.975
			c-1.161-0.22-2.085-0.786-2.393-2.062c-1.742-7.228-6.562-11.025-13.699-12.123c-5.707-0.877-11.354-0.645-16.784,1.523
			c-4.993,1.994-7.501,5.697-7.418,10.798c0.052,3.216,1.608,5.623,4.151,7.471c2.926,2.126,6.371,2.933,9.775,3.822
			c6.501,1.698,13.041,3.257,19.511,5.064c4.885,1.364,9.315,3.705,12.841,7.443c7.158,7.59,7.32,20.054,0.464,28.411
			c-4.406,5.368-10.26,8.217-16.899,9.554C110.119,172.351,107.063,172.504,104.047,172.859z"/>
		<path fill-rule="evenodd" clip-rule="evenodd" d="M402.698,87.646c6.618,0.127,12.767,0.87,18.369,3.924
			c5.707,3.113,9.669,7.687,11.202,14.142c0.119,0.505,0.173,1.025,0.24,1.542c0.344,2.678-0.026,3.448-2.596,4.131
			c-1.55,0.411-3.224,0.53-4.836,0.495c-1.806-0.039-2.372-0.867-3.026-2.542c-0.809-2.066-1.729-4.129-2.915-5.994
			c-1.657-2.602-4.271-4.092-7.186-4.921c-6.62-1.885-13.24-1.763-19.726,0.567c-5.206,1.871-7.922,5.727-7.878,10.744
			c0.03,3.611,1.719,6.357,4.762,8.096c2.027,1.159,4.25,2.101,6.501,2.714c6.33,1.726,12.732,3.178,19.079,4.842
			c3.956,1.037,7.766,2.464,11.29,4.622c12.758,7.813,12.281,23.667,4.987,32.315c-4.561,5.407-10.511,8.327-17.312,9.525
			c-9.043,1.593-17.994,1.054-26.54-2.495c-8.074-3.353-13.439-9.234-15.389-17.928c-0.564-2.518-0.044-3.422,2.34-4.339
			c1.852-0.713,3.762-0.747,5.67-0.283c1.072,0.262,1.93,0.873,2.133,2.037c0.867,4.956,3.826,8.325,8.206,10.435
			c7.996,3.853,16.341,4.643,24.891,2.176c4.294-1.238,7.708-3.71,9.523-7.978c2.116-4.973,0.721-10.151-3.606-13.385
			c-3.081-2.303-6.689-3.4-10.333-4.363c-5.646-1.493-11.35-2.779-16.96-4.395c-4.507-1.297-8.83-3.089-12.588-6.051
			c-8.706-6.863-8.618-17.923-4.72-24.96c3.377-6.096,8.805-9.449,15.36-11.237C395.38,88.062,399.196,87.696,402.698,87.646z"/>
		<path fill-rule="evenodd" clip-rule="evenodd" d="M154.691,130.1c0.381,5.86,1.002,11.598,3.06,17.123
			c4.495,12.064,15.75,16.434,25.138,16.016c5.6-0.249,10.725-1.782,14.928-5.692c2.597-2.416,4.474-5.335,5.71-8.64
			c0.688-1.843,1.456-3.538,3.674-3.811c2.579-0.317,4.521,0.83,5.917,2.908c1.156,1.72,1.281,3.577,0.396,5.48
			c-5.758,12.378-15.562,18.564-29.104,19.077c-5.648,0.215-11.202-0.29-16.585-2.088c-8.86-2.958-15.131-8.858-18.964-17.277
			c-5.8-12.738-6.738-25.995-3.009-39.402c3.746-13.469,13.021-21.562,26.401-24.916c8.42-2.111,16.855-1.844,25.014,1.413
			c6.392,2.551,11.085,7.082,14.334,13.092c0.432,0.796,0.526,1.965,0.345,2.873c-0.632,3.142-4.488,5.335-7.562,4.444
			c-1.256-0.364-1.95-1.313-2.541-2.399c-2.413-4.433-5.785-7.837-10.547-9.722c-8.368-3.312-23.244-2.006-30.369,8.394
			c-2.753,4.02-4.164,8.555-5.021,13.257C155.309,123.484,155.082,126.808,154.691,130.1z"/>
	</g>
</g>
<g id="Calque_4">
	<g>
		<circle cx="214.344" cy="111.5" r="69.863"/>
		<path fill="#FFFFFF" d="M199.469,114.74c5.838,25.807,16.999,48.165,30.849,64.471c5.482-20.68,5.933-45.665,0.095-71.471
			c-5.839-25.807-16.999-48.165-30.849-64.473C194.081,63.948,193.631,88.935,199.469,114.74z"/>
	</g>
</g>
<g id="Calque_5">
	<text transform="matrix(1 0 0 1 4.1978 241.1191)"><tspan x="0" y="0" font-family="'DINPro-Regular'" font-size="24" letter-spacing="4">GEO INTELLIGENT VIEWER </tspan><tspan x="405.716" y="0" font-family="'DINPro-Regular'" font-size="12" letter-spacing="2">JS</tspan></text>
	<text transform="matrix(1 0 0 1 4.1978 21.249)"><tspan x="0" y="0" font-family="'DINPro-Regular'" font-size="24" letter-spacing="4">OSCARS </tspan><tspan x="129.095" y="0" font-family="'DINPro-Regular'" font-size="12" letter-spacing="2">SA</tspan></text>
</g>
</svg>
