<?xml version="1.0" encoding="utf-8"?>
<!-- Generator: Adobe Illustrator 16.0.4, SVG Export Plug-In . SVG Version: 6.00 Build 0)  -->
<!DOCTYPE svg PUBLIC "-//W3C//DTD SVG 1.1//EN" "http://www.w3.org/Graphics/SVG/1.1/DTD/svg11.dtd">
<svg version="1.1" id="Calque_1" xmlns="http://www.w3.org/2000/svg" xmlns:xlink="http://www.w3.org/1999/xlink" x="0px" y="0px"
	 width="156px" height="50px" viewBox="341.445 271.14 156 50" enable-background="new 341.445 271.14 156 50" xml:space="preserve"
	>
<path fill="#333333" d="M479.285,282.71h-28.901h-0.232h-98.903c-2.812,0-5.092,3.135-5.092,7v16.149c0,3.867,2.279,7,5.092,7
	h98.903h0.232h28.901c2.812,0,5.093-3.133,5.093-7V289.71C484.378,285.845,482.098,282.71,479.285,282.71z"/>
<g>
	<g>
		<path fill="none" d="M472.33,312.033c13.48-5.815,22.438-15.106,20.007-20.739c-1.123-2.6-4.474-3.965-9.074-4.116l-12.83,25.637
			C471.062,312.565,471.695,312.309,472.33,312.033z"/>
		<path fill="#DB2109" d="M443.512,312.365c-2.4-5.561,6.293-14.68,19.479-20.512c-0.176,0.076-0.354,0.152-0.528,0.229
			c-14.843,6.401-24.714,16.596-22.048,22.768c2.189,5.076,12.187,5.841,23.923,2.387l-1.513-1.988
			C453.24,317.587,445.359,316.644,443.512,312.365z"/>
		<path fill="#DB2109" d="M494.146,291.655c-1.301-3.013-5.35-4.501-10.875-4.5l-0.01,0.022c4.602,0.151,7.951,1.518,9.074,4.116
			c2.432,5.633-6.525,14.924-20.007,20.739c-0.635,0.274-1.268,0.531-1.897,0.78l-1.431,2.857c1.027-0.388,2.062-0.802,3.101-1.249
			C486.939,308.017,496.812,297.827,494.146,291.655z"/>
		<path fill="#FFFFFF" d="M483.262,287.178c-0.248-0.009-0.498-0.016-0.754-0.017c0.26-0.007,0.512-0.007,0.764-0.007l5.861-11.713
			l-0.332,0.168l-33.854,29.275l7.877,10.362c2.449-0.597,5.008-1.408,7.607-2.435L483.262,287.178z"/>
		<path fill="#FFFFFF" d="M466.678,320.317l2.324-4.646c-1.576,0.594-3.136,1.114-4.666,1.564L466.678,320.317z"/>
		<path fill="#DB2109" d="M462.824,315.248l1.513,1.988c1.53-0.45,3.09-0.972,4.666-1.564l1.43-2.857
			C467.832,313.84,465.273,314.652,462.824,315.248z"/>
		<path fill="#FFFFFF" d="M483.262,287.178l0.01-0.022c-0.252,0-0.504,0-0.764,0.007
			C482.764,287.162,483.014,287.169,483.262,287.178z"/>
	</g>
	<polygon fill="#E6E6E6" points="439.979,295.468 454.955,304.763 454.947,304.886 488.802,275.61 	"/>
</g>
<g>
	<path fill="#FFFFFF" d="M357.721,297.947h-3.025v4.69h-1.217V291.24h4.242c2.064,0,3.521,1.312,3.521,3.346
		S359.786,297.947,357.721,297.947z M357.625,292.329h-2.929v4.529h2.929c1.424,0,2.401-0.769,2.401-2.272
		S359.049,292.329,357.625,292.329z"/>
	<path fill="#FFFFFF" d="M369.865,301.612c-0.704,0.704-1.648,1.12-2.833,1.12s-2.145-0.416-2.849-1.12
		c-1.073-1.072-1.138-2.064-1.138-4.674c0-2.608,0.064-3.602,1.138-4.674c0.704-0.705,1.665-1.121,2.849-1.121
		s2.129,0.416,2.833,1.121c1.073,1.072,1.152,2.065,1.152,4.674C371.018,299.547,370.938,300.539,369.865,301.612z M369.001,293.033
		c-0.527-0.528-1.201-0.801-1.969-0.801c-0.769,0-1.44,0.272-1.969,0.801c-0.72,0.735-0.8,1.568-0.8,3.905s0.08,3.169,0.8,3.905
		c0.527,0.527,1.2,0.801,1.969,0.801c0.768,0,1.44-0.272,1.969-0.801c0.721-0.736,0.8-1.568,0.8-3.905
		S369.721,293.769,369.001,293.033z"/>
	<path fill="#FFFFFF" d="M382.57,302.637h-1.136l-2.529-9.124l-2.529,9.124h-1.136l-2.914-11.396h1.297l2.226,9.188l2.513-9.188
		h1.088l2.513,9.188l2.226-9.188h1.297L382.57,302.637z"/>
	<path fill="#FFFFFF" d="M387.382,302.637V291.24h7.075v1.089h-5.857v4.018h4.993v1.088h-4.993v4.114h5.857v1.088L387.382,302.637
		L387.382,302.637z"/>
	<path fill="#FFFFFF" d="M403.529,302.637l-2.593-5.058h-2.737v5.058h-1.217V291.24h4.37c1.984,0,3.377,1.2,3.377,3.17
		c0,1.665-1.009,2.753-2.481,3.058l2.706,5.17H403.529L403.529,302.637z M401.24,292.329h-3.041v4.178h3.041
		c1.329,0,2.273-0.688,2.273-2.081S402.568,292.329,401.24,292.329z"/>
	<path fill="#FFFFFF" d="M407.478,302.637V291.24h7.075v1.089h-5.858v4.018h4.994v1.088h-4.994v4.114h5.858v1.088L407.478,302.637
		L407.478,302.637z"/>
	<path fill="#FFFFFF" d="M423.977,301.436c-0.768,0.833-1.713,1.201-2.993,1.201h-3.906V291.24h3.906c1.28,0,2.227,0.368,2.993,1.2
		c1.008,1.088,1.008,2.753,1.008,4.498S424.984,300.348,423.977,301.436z M423.016,293.161c-0.576-0.642-1.376-0.833-2.24-0.833
		h-2.481v9.22h2.481c0.864,0,1.664-0.192,2.24-0.833c0.736-0.784,0.753-2.193,0.753-3.777S423.753,293.945,423.016,293.161z"/>
	<path fill="#FFFFFF" d="M436.264,302.637h-4.436V291.24h4.29c1.984,0,3.361,1.137,3.361,3.041c0,1.201-0.721,2.146-1.681,2.497
		c1.089,0.4,1.855,1.346,1.855,2.705C439.656,301.549,438.279,302.637,436.264,302.637z M436.023,292.329h-2.978v3.954h2.978
		c1.264,0,2.24-0.625,2.24-1.985S437.287,292.329,436.023,292.329z M436.15,297.371h-3.104v4.178h3.104
		c1.409,0,2.289-0.816,2.289-2.099C438.439,298.171,437.56,297.371,436.15,297.371z"/>
	<path fill="#FFFFFF" d="M445.287,297.931v4.706h-1.217v-4.706l-3.394-6.689h1.312l2.689,5.458l2.657-5.458h1.312L445.287,297.931z"
		/>
	<path d="M461.001,301.42c-0.802,0.881-1.873,1.312-3.041,1.312c-1.187,0-2.146-0.416-2.851-1.12
		c-1.072-1.071-1.137-2.064-1.137-4.674c0-2.608,0.063-3.602,1.137-4.674c0.704-0.705,1.664-1.121,2.851-1.121
		c2.145,0,3.664,1.44,3.983,3.409h-1.216c-0.32-1.457-1.345-2.321-2.77-2.321c-0.784,0-1.456,0.272-1.969,0.8
		c-0.721,0.736-0.801,1.569-0.801,3.906s0.08,3.169,0.801,3.905c0.513,0.527,1.185,0.801,1.969,0.801
		c0.832,0,1.634-0.336,2.16-0.978c0.465-0.575,0.642-1.2,0.642-2.064v-0.88h-2.802v-1.041h4.019v1.809
		C461.977,299.804,461.736,300.604,461.001,301.42z"/>
	<path d="M464.805,302.637V291.24h1.217v11.396L464.805,302.637L464.805,302.637z"/>
	<path d="M473.559,297.947h-3.025v4.69h-1.217V291.24h4.242c2.063,0,3.521,1.312,3.521,3.346S475.623,297.947,473.559,297.947z
		 M473.464,292.329h-2.931v4.529h2.931c1.424,0,2.399-0.769,2.399-2.272S474.887,292.329,473.464,292.329z"/>
</g>
</svg>
