<?xml version="1.0" encoding="utf-8"?>
<!-- Generator: Adobe Illustrator 16.0.4, SVG Export Plug-In . SVG Version: 6.00 Build 0)  -->
<!DOCTYPE svg PUBLIC "-//W3C//DTD SVG 1.1//EN" "http://www.w3.org/Graphics/SVG/1.1/DTD/svg11.dtd">
<svg version="1.1" id="Calque_1" xmlns="http://www.w3.org/2000/svg" xmlns:xlink="http://www.w3.org/1999/xlink" x="0px" y="0px"
	 width="340px" height="95px" viewBox="253.445 249.14 340 95" enable-background="new 253.445 249.14 340 95" xml:space="preserve"
	>
<g id="Calque_2">
</g>
<g id="Calque_1_1_">
	<g>
		<path d="M264.265,294.079h-5.67v8.789h-2.28V281.51h7.95c3.87,0,6.6,2.46,6.6,6.27
			C270.865,291.59,268.135,294.079,264.265,294.079z M264.085,283.549h-5.489v8.49h5.489c2.67,0,4.5-1.44,4.5-4.261
			C268.585,284.959,266.755,283.549,264.085,283.549z"/>
		<path d="M285.535,300.948c-1.32,1.319-3.09,2.102-5.31,2.102c-2.221,0-4.021-0.781-5.34-2.102c-2.011-2.01-2.131-3.869-2.131-8.76
			c0-4.89,0.12-6.75,2.131-8.76c1.319-1.32,3.119-2.1,5.34-2.1c2.22,0,3.989,0.779,5.31,2.1c2.01,2.01,2.16,3.87,2.16,8.76
			C287.695,297.079,287.545,298.938,285.535,300.948z M283.915,284.869c-0.99-0.99-2.25-1.5-3.689-1.5c-1.44,0-2.7,0.51-3.69,1.5
			c-1.35,1.38-1.5,2.938-1.5,7.318s0.15,5.94,1.5,7.319c0.99,0.989,2.25,1.5,3.69,1.5c1.439,0,2.699-0.511,3.689-1.5
			c1.351-1.379,1.5-2.939,1.5-7.319S285.265,286.249,283.915,284.869z"/>
		<path d="M307.855,302.867h-2.13l-4.74-17.099l-4.74,17.099h-2.13l-5.46-21.358h2.43l4.17,17.22l4.71-17.22h2.04l4.709,17.22
			l4.171-17.22h2.43L307.855,302.867z"/>
		<path d="M315.385,302.867v-21.358h13.259v2.04h-10.979v7.53h9.36v2.04h-9.36v7.708h10.979v2.04H315.385L315.385,302.867z"/>
		<path d="M344.154,302.867l-4.86-9.479h-5.13v9.479h-2.28v-21.358h8.19c3.72,0,6.33,2.25,6.33,5.94c0,3.119-1.89,5.159-4.65,5.729
			l5.07,9.688H344.154z M339.864,283.549h-5.7v7.83h5.7c2.49,0,4.26-1.29,4.26-3.899
			C344.124,284.871,342.354,283.549,339.864,283.549z"/>
		<path d="M350.064,302.867v-21.358h13.259v2.04h-10.979v7.53h9.359v2.04h-9.359v7.708h10.979v2.04H350.064L350.064,302.867z"/>
		<path d="M379.494,300.617c-1.439,1.561-3.21,2.25-5.61,2.25h-7.319v-21.358h7.319c2.4,0,4.171,0.69,5.61,2.25
			c1.89,2.04,1.89,5.16,1.89,8.43C381.383,295.458,381.383,298.577,379.494,300.617z M377.693,285.109
			c-1.08-1.199-2.58-1.56-4.2-1.56h-4.65v17.278h4.65c1.62,0,3.12-0.358,4.2-1.56c1.38-1.47,1.41-4.109,1.41-7.08
			C379.104,289.219,379.074,286.579,377.693,285.109z"/>
		<path d="M399.533,302.867h-8.31v-21.358h8.04c3.72,0,6.3,2.13,6.3,5.7c0,2.25-1.351,4.02-3.15,4.68
			c2.04,0.75,3.48,2.521,3.48,5.07C405.893,300.827,403.312,302.867,399.533,302.867z M399.083,283.549h-5.58v7.41h5.58
			c2.37,0,4.2-1.17,4.2-3.721C403.283,284.689,401.453,283.549,399.083,283.549z M399.323,292.999h-5.82v7.829h5.82
			c2.64,0,4.29-1.528,4.29-3.93C403.613,294.499,401.963,292.999,399.323,292.999z"/>
		<path d="M414.954,294.048v8.819h-2.28v-8.819l-6.358-12.54h2.459l5.04,10.229l4.979-10.229h2.46L414.954,294.048z"/>
	</g>
	<g>
		<path d="M563.656,300.664c-1.5,1.65-3.51,2.46-5.7,2.46c-2.22,0-4.02-0.778-5.34-2.1c-2.01-2.01-2.13-3.87-2.13-8.76
			s0.12-6.75,2.13-8.76c1.32-1.319,3.12-2.101,5.34-2.101c4.021,0,6.87,2.7,7.471,6.391h-2.279c-0.601-2.729-2.521-4.351-5.19-4.351
			c-1.47,0-2.729,0.511-3.689,1.5c-1.351,1.381-1.499,2.939-1.499,7.319s0.148,5.938,1.499,7.319
			c0.961,0.989,2.221,1.499,3.689,1.499c1.561,0,3.061-0.63,4.051-1.828c0.87-1.08,1.199-2.25,1.199-3.87v-1.65h-5.25v-1.948h7.53
			v3.39C565.486,297.636,565.035,299.136,563.656,300.664z"/>
		<path d="M569.298,302.945v-21.358h2.278v21.358H569.298z"/>
		<path d="M584.206,294.155h-5.67v8.79h-2.279v-21.358h7.949c3.87,0,6.601,2.46,6.601,6.27
			C590.806,291.666,588.076,294.155,584.206,294.155z M584.025,283.626h-5.489v8.49h5.489c2.67,0,4.5-1.44,4.5-4.262
			C588.525,285.036,586.695,283.626,584.025,283.626z"/>
	</g>
	<g>
		<g>
			
				<image overflow="visible" opacity="0.48" enable-background="new    " width="429" height="396" xlink:href="C6F0073ADEE1C906.png"  transform="matrix(0.2378 0 0 0.2364 431.2146 252.5901)">
			</image>
			<g>
				<polygon fill="#CD0D21" points="529.301,253.43 434.27,292.078 463.421,310.171 463.404,310.406 486.237,340.446 529.943,253.1 
									"/>
			</g>
		</g>
		<g>
			<g>
				<path fill="none" d="M441.1,299.542c0.752-0.54,1.297-1.284,1.73-2.102c0.649-1.219,0.926-2.539,1.009-3.902
					c0.102-1.662,0.008-3.31-0.584-4.882c-0.336-0.89-0.776-1.702-1.398-2.391c-4.883,4.076-7.378,8.376-6.563,12.303
					c0.175,0.839,0.497,1.633,0.95,2.382C438.026,301.066,439.646,300.584,441.1,299.542z"/>
				<path fill="none" d="M440.649,285.26c-1.499-0.94-3.116-1.27-4.872-1.08c-2.394,0.258-4.128,1.459-5.184,3.621
					c-0.769,1.573-0.979,3.265-1.043,4.998c0.08,0.748,0.121,1.503,0.249,2.244c0.304,1.775,1.119,3.284,2.498,4.464
					c0.129,0.109,0.26,0.212,0.394,0.307C431.763,295.168,434.783,290.076,440.649,285.26z"/>
				<path fill="none" d="M517.302,284.781c-0.43-0.108-0.888-0.149-1.331-0.155c-1.804-0.028-3.233-0.028-5.036-0.036
					c-0.1-0.001,0.066,0.011,0.066,0.017c0,2.486,0,5.396,0,7.396c0,0-0.493,0-0.374,0c1.405,0,2.812,0.042,4.221,0.02
					c0.577-0.01,1.162-0.043,1.729-0.143c0.985-0.176,1.877-0.551,2.493-1.395c0.56-0.763,0.672-1.64,0.638-2.555
					C519.648,286.43,518.675,285.131,517.302,284.781z"/>
				<path fill="none" d="M510.615,294c-0.11,0-0.222,0-0.372,0c-0.006,0-0.012,0.46-0.013,0.539
					c-0.005,1.012-0.011,2.153-0.017,3.166c1.996-1.068,3.831-2.115,5.481-3.252c-0.225,0-0.45-0.225-0.675-0.226
					C513.553,294.229,512.085,294,510.615,294z"/>
				<path fill="none" d="M445.397,298.404c-1.349,2.648-3.605,4.132-6.46,4.748c-0.232,0.05-0.467,0.084-0.702,0.114
					c7.068,6.154,25.371,7.914,45.732,3.695c8.858-1.837,16.912-4.558,23.516-7.74c-0.005-0.954-0.254-1.908-0.255-2.864
					c-0.003-4.609-0.229-9.22-0.229-13.83c0-0.131,0-0.261,0-0.407c0-0.01,0.368-0.021,0.427-0.021
					c2.745,0.007,5.602,0.002,8.344,0.025c0.979,0.01,2.013,0.129,2.949,0.442c2.278,0.768,3.472,2.431,3.768,4.75
					c0.045,0.351,0.078,0.699,0.076,1.046c2.274-2.86,3.291-5.74,2.729-8.442c-2.026-9.786-23.815-13.543-48.672-8.395
					c-13.553,2.81-25.214,7.687-32.689,13.127c0.936,0.978,1.639,2.158,2.094,3.542
					C447.166,291.666,447.078,295.104,445.397,298.404z"/>
				<g>
					<g>
						
							<image overflow="visible" opacity="0.48" enable-background="new    " width="113" height="158" xlink:href="C6F0073ADEE1C90A.png"  transform="matrix(0.2251 0 0 0.237 516.7175 266.4573)">
						</image>
						<g>
							<path fill="#DB2109" d="M538.773,277.893c-1.079-5.204-6.946-8.952-15.768-10.927l-3.233,6.463
								c3.038,1.697,4.986,3.879,5.527,6.49c0.561,2.702-0.448,5.582-2.724,8.442c-0.004,0.81-0.135,1.608-0.417,2.391
								c-0.375,1.042-1.024,1.865-1.947,2.478c-0.083,0.055-0.163,0.11-0.226,0.151c0.396,0.366,0.812,0.698,1.165,1.088
								c0.752,0.827,1.093,1.831,1.1,2.939c0.003,0.275,0,0.553,0.003,0.829C533.583,291.917,540.134,284.457,538.773,277.893z"/>
						</g>
					</g>
					<g>
						
							<image overflow="visible" opacity="0.48" enable-background="new    " width="267" height="108" xlink:href="C6F0073ADEE1C90D.png"  transform="matrix(0.2355 0 0 0.2333 439.7068 265.1077)">
						</image>
						<g>
							<path fill="#DB2109" d="M481.43,268.094c-16.052,3.326-29.857,9.102-38.668,15.533c0.425,0.311,0.812,0.652,1.171,1.024
								c7.477-5.44,19.141-10.317,32.692-13.127c4.429-0.917,8.76-1.551,12.898-1.919l9.812-3.99
								C493.653,265.995,487.622,266.811,481.43,268.094z"/>
						</g>
					</g>
					<g>
						<g>
							<polygon fill="#E0E0D9" points="529.301,253.43 463.404,310.406 486.237,340.446 529.943,253.1 							"/>
						</g>
						<g>
							<polygon fill="#C2BFB7" points="434.27,292.078 463.421,310.171 463.404,310.406 529.301,253.43 							"/>
						</g>
					</g>
				</g>
				<g>
					
						<image overflow="visible" opacity="0.48" enable-background="new    " width="71" height="96" xlink:href="C6F0073ADEE1C90E.png"  transform="matrix(0.2197 0 0 0.2275 429.4714 284.7512)">
					</image>
					<g>
						<path fill="#DB2109" d="M441.856,286.267c-0.308-0.34-0.659-0.65-1.07-0.922c-0.045-0.029-0.091-0.058-0.137-0.085
							c-5.866,4.816-8.887,9.908-7.958,14.554c0.986,0.698,2.122,1.012,3.339,1.123c0.071,0.007,0.144,0.011,0.213,0.015
							c-0.453-0.749-0.775-1.543-0.951-2.382C434.479,294.643,436.974,290.343,441.856,286.267z"/>
					</g>
				</g>
				<path d="M519.515,302.584c-0.003,0.46,0.128,0.688,0.586,0.745c0.518,0.064,1.054,0.063,1.571,0.005
					c0.438-0.05,0.573-0.281,0.574-0.727c0.005-1.457,0.012-2.913,0.008-4.37c-0.883,0.491-1.791,0.978-2.729,1.453
					C519.518,300.655,519.521,301.62,519.515,302.584z"/>
				<path d="M522.515,287.316c-0.297-2.319-1.46-3.982-3.739-4.75c-0.936-0.313-1.911-0.434-2.891-0.442
					c-2.742-0.023-5.714-0.02-8.459-0.025c-0.059,0-0.426,0.013-0.426,0.021c0,0.146,0,0.276,0,0.407
					c0,4.61,0.226,9.221,0.229,13.83c0.001,0.956,0.137,1.91,0.141,2.864c0.939-0.454,1.908-0.915,2.789-1.386
					c0.005-1.012,0.038-2.285,0.045-3.297c0-0.079,0.034-0.539,0.04-0.539c0.15,0,0.262,0,0.372,0c1.47,0,2.938,0.261,4.406,0.262
					c0.225,0,0.45,0.125,0.675,0.125c2.892-1.992,5.224-4.003,6.881-6.09C522.58,287.951,522.561,287.666,522.515,287.316z
					 M519.07,290.49c-0.616,0.844-1.508,1.227-2.493,1.398c-0.567,0.102-1.152,0.121-1.729,0.131
					c-1.407,0.022-2.814-0.02-4.221-0.02c-0.119,0-0.626,0-0.626,0c0-2,0-4.908,0-7.396c0-0.006,0.644-0.018,0.742-0.017
					c1.804,0.008,3.518,0.008,5.319,0.036c0.445,0.006,0.854,0.047,1.284,0.155c1.373,0.351,2.325,1.651,2.385,3.151
					C519.767,288.848,519.63,289.727,519.07,290.49z"/>
				<path d="M521.152,294.469c-0.354-0.39-0.769-0.722-1.165-1.088c0.062-0.041,0.143-0.098,0.226-0.151
					c0.923-0.611,1.572-1.436,1.947-2.478c0.282-0.781,0.413-1.581,0.417-2.391c-1.898,1.604-4.499,3.832-6.881,6.155
					c0.231-0.002,0.462,0.002,0.691,0.02c2.126,0.165,3.212,2.046,3.168,3.492c-0.019,0.554-0.025,1.107-0.03,1.662
					c0.938-0.477,1.847-0.962,2.729-1.453c-0.002-0.276,0-0.554-0.004-0.829C522.245,296.3,521.904,295.296,521.152,294.469z"/>
				<path d="M432.691,299.813c-0.134-0.095-0.265-0.196-0.394-0.307c-1.379-1.18-2.194-2.688-2.498-4.464
					c-0.128-0.741-0.169-1.496-0.249-2.244c0.064-1.733,0.274-3.425,1.043-4.998c1.056-2.162,2.79-3.363,5.184-3.621
					c1.756-0.188,3.373,0.14,4.872,1.08c0.668-0.548,1.373-1.093,2.112-1.633c-0.516-0.377-1.08-0.709-1.694-0.995
					c-1.834-0.854-3.77-1.056-5.764-0.836c-3.197,0.354-5.601,1.916-7.159,4.739c-0.863,1.562-1.236,3.262-1.381,5.026
					c-0.199,2.429,0.231,4.73,1.333,6.898c0.621,1.225,1.492,2.26,2.596,3.088c1.053,0.788,2.198,1.274,3.409,1.557
					c-0.687-1.005-1.162-2.083-1.399-3.233C432.698,299.853,432.695,299.833,432.691,299.813z"/>
				<path d="M443.256,288.657c0.592,1.571,0.686,3.219,0.584,4.881c-0.083,1.363-0.358,2.685-1.009,3.902
					c-0.435,0.816-0.979,1.562-1.73,2.102c-1.453,1.042-3.073,1.523-4.856,1.408c0.505,0.829,1.171,1.604,1.992,2.315
					c0.235-0.03,0.47-0.064,0.702-0.114c2.854-0.616,5.111-2.1,6.46-4.748c1.681-3.3,1.771-6.737,0.628-10.21
					c-0.455-1.384-1.157-2.564-2.093-3.542c-0.734,0.533-1.425,1.071-2.076,1.614C442.479,286.954,442.92,287.768,443.256,288.657z"
					/>
				<path fill="#F00F00" d="M440.786,285.345c0.411,0.271,0.764,0.582,1.07,0.922c0.651-0.543,1.342-1.081,2.076-1.614
					c-0.357-0.372-0.746-0.715-1.171-1.024c-0.739,0.54-1.444,1.085-2.112,1.633C440.695,285.287,440.741,285.315,440.786,285.345z"
					/>
				<path d="M438.235,303.267c-0.821-0.713-1.488-1.486-1.992-2.315c-0.069-0.004-0.142-0.008-0.213-0.015
					c-1.217-0.111-2.353-0.425-3.339-1.123c0.004,0.02,0.007,0.039,0.011,0.059c0.237,1.15,0.714,2.229,1.399,3.233
					c0.855,0.198,1.745,0.294,2.66,0.32C437.252,303.365,437.746,303.329,438.235,303.267z"/>
				<path d="M504.184,303.19c-0.275-0.04-0.61-0.074-0.938-0.138c-0.378-0.074-0.611-0.295-0.747-0.676
					c-0.846-2.365-1.712-4.724-2.561-7.087c-0.083-0.229-0.192-0.306-0.438-0.305c-2.325,0.012-4.65,0.012-6.977,0
					c-0.251-0.001-0.349,0.084-0.429,0.312c-0.839,2.382-1.701,4.754-2.527,7.139c-0.165,0.472-0.459,0.729-0.914,0.771
					c-0.522,0.048-1.058,0.061-1.58,0.013c-0.566-0.052-0.676-0.279-0.473-0.802c2.502-6.454,5.007-12.907,7.506-19.364
					c0.186-0.477,0.521-0.738,1-0.844c0.618-0.135,1.233-0.132,1.84,0.063c0.382,0.125,0.639,0.375,0.791,0.75
					c2.081,5.057,4.172,10.106,6.247,15.163c0.553,1.344,1.068,2.704,1.6,4.057c0.155,0.397,0.033,0.654-0.372,0.804
					c-0.076,0.026-0.157,0.049-0.237,0.06C504.732,303.135,504.488,303.156,504.184,303.19z M499.019,292.686
					c-1.023-2.423-2.036-4.819-3.078-7.283c-0.966,2.477-1.898,4.868-2.842,7.283C495.093,292.686,497.035,292.686,499.019,292.686z
					"/>
				<path fill="#DB2109" d="M516.388,294.536c-0.229-0.018-0.46-0.021-0.691-0.02c-1.65,1.138-3.485,2.249-5.481,3.318
					c-0.879,0.471-1.79,0.932-2.73,1.386c-6.604,3.184-14.656,5.903-23.516,7.74c-20.361,4.219-38.664,2.459-45.732-3.695
					c-0.489,0.062-0.983,0.1-1.474,0.159c-0.915-0.026-1.804-0.122-2.66-0.32c6.163,9.021,29.588,12.027,55.943,6.565
					c11.245-2.33,21.385-5.862,29.479-9.979c0.005-0.555,0.013-1.108,0.03-1.662C519.6,296.582,518.514,294.701,516.388,294.536z"/>
			</g>
			<path d="M457.429,303.436c-1.775-0.086-3.508-0.298-5.104-1.129c-1.799-0.937-2.984-2.365-3.408-4.377
				c-0.121-0.578,0-0.795,0.544-1.025c0.487-0.21,0.989-0.221,1.496-0.102c0.274,0.063,0.497,0.217,0.551,0.513
				c0.22,1.247,0.953,2.108,2.057,2.644c2.116,1.024,4.316,1.229,6.563,0.507c1.1-0.354,1.925-1.055,2.313-2.185
				c0.406-1.178,0.04-2.381-0.946-3.145c-0.732-0.566-1.593-0.857-2.471-1.092c-1.505-0.4-3.021-0.766-4.523-1.172
				c-0.896-0.243-1.753-0.589-2.56-1.062c-3.531-2.068-3.146-6.716-0.193-8.715c1.108-0.75,2.353-1.12,3.66-1.269
				c1.721-0.197,3.425-0.104,5.071,0.475c1.786,0.624,3.101,1.774,3.733,3.599c0.129,0.37,0.148,0.776,0.21,1.168
				c0.044,0.282-0.104,0.472-0.341,0.592c-0.535,0.268-1.104,0.359-1.693,0.248c-0.294-0.057-0.53-0.2-0.608-0.525
				c-0.443-1.839-1.671-2.806-3.486-3.086c-1.452-0.222-2.89-0.163-4.272,0.388c-1.271,0.509-1.908,1.451-1.887,2.749
				c0.013,0.819,0.409,1.433,1.057,1.902c0.743,0.54,1.62,0.745,2.487,0.972c1.654,0.434,3.318,0.829,4.966,1.29
				c1.243,0.348,2.372,0.942,3.269,1.895c1.823,1.933,1.863,5.104,0.118,7.23c-1.12,1.367-2.61,2.092-4.302,2.433
				C458.975,303.306,458.196,303.345,457.429,303.436z"/>
			<path d="M533.443,281.746c1.686,0.031,3.25,0.222,4.676,0.999c1.452,0.793,2.461,1.956,2.852,3.6
				c0.03,0.129,0.044,0.26,0.062,0.393c0.088,0.682-0.007,0.879-0.661,1.053c-0.394,0.104-0.818,0.134-1.229,0.126
				c-0.46-0.011-0.604-0.223-0.771-0.647c-0.205-0.525-0.438-1.052-0.74-1.524c-0.422-0.662-1.086-1.041-1.828-1.253
				c-1.687-0.479-3.371-0.449-5.021,0.144c-1.326,0.477-2.017,1.458-2.006,2.735c0.009,0.919,0.438,1.617,1.211,2.061
				c0.519,0.296,1.083,0.535,1.655,0.69c1.611,0.438,3.242,0.81,4.856,1.232c1.007,0.265,1.978,0.627,2.872,1.176
				c3.248,1.989,3.126,6.023,1.271,8.227c-1.161,1.375-2.676,2.118-4.407,2.424c-2.301,0.406-4.579,0.269-6.754-0.636
				c-2.057-0.854-3.421-2.351-3.918-4.562c-0.143-0.642-0.011-0.872,0.596-1.104c0.473-0.183,0.958-0.19,1.443-0.073
				c0.273,0.067,0.492,0.223,0.543,0.52c0.221,1.263,0.974,2.119,2.089,2.655c2.034,0.98,4.158,1.182,6.336,0.555
				c1.093-0.314,1.961-0.943,2.423-2.03c0.539-1.268,0.186-2.584-0.917-3.407c-0.784-0.586-1.703-0.864-2.631-1.11
				c-1.437-0.38-2.889-0.706-4.315-1.117c-1.147-0.33-2.248-0.787-3.204-1.541c-2.215-1.746-2.194-4.562-1.201-6.354
				c0.859-1.552,2.241-2.403,3.91-2.859C531.581,281.853,532.552,281.759,533.443,281.746z"/>
			<path d="M470.318,292.552c0.098,1.491,0.256,2.952,0.779,4.358c1.144,3.069,4.009,4.184,6.397,4.075
				c1.426-0.062,2.729-0.454,3.8-1.449c0.66-0.613,1.14-1.356,1.452-2.197c0.177-0.47,0.371-0.9,0.938-0.971
				c0.656-0.08,1.148,0.212,1.506,0.739c0.294,0.438,0.326,0.911,0.102,1.396c-1.467,3.15-3.963,4.726-7.408,4.855
				c-1.438,0.055-2.853-0.074-4.223-0.531c-2.254-0.753-3.852-2.256-4.825-4.396c-1.478-3.243-1.716-6.617-0.767-10.03
				c0.953-3.428,3.314-5.486,6.721-6.341c2.144-0.538,4.288-0.47,6.365,0.359c1.627,0.648,2.821,1.804,3.648,3.332
				c0.109,0.202,0.135,0.5,0.088,0.73c-0.161,0.8-1.143,1.357-1.925,1.131c-0.32-0.093-0.496-0.334-0.646-0.609
				c-0.613-1.129-1.473-1.995-2.686-2.476c-2.13-0.843-5.915-0.511-7.729,2.137c-0.7,1.022-1.06,2.179-1.277,3.375
				C470.476,290.868,470.419,291.713,470.318,292.552z"/>
		</g>
	</g>
</g>
</svg>
