<?xml version="1.0" encoding="utf-8"?>
<!-- Generator: Adobe Illustrator 16.0.4, SVG Export Plug-In . SVG Version: 6.00 Build 0)  -->
<!DOCTYPE svg PUBLIC "-//W3C//DTD SVG 1.1//EN" "http://www.w3.org/Graphics/SVG/1.1/DTD/svg11.dtd">
<svg version="1.1" id="Calque_1" xmlns="http://www.w3.org/2000/svg" xmlns:xlink="http://www.w3.org/1999/xlink" x="0px" y="0px"
	 width="683.062px" height="208.795px" viewBox="79.217 190.391 683.062 208.795"
	 enable-background="new 79.217 190.391 683.062 208.795" xml:space="preserve">
<g>
	<polygon fill="#485959" points="445.857,333.058 445.857,364.866 336.805,364.866 331.081,354.229 319.714,333.058 	"/>
	<g>
		<path fill="#354242" d="M99.545,324.379v11.895c0,1.313,1.074,2.386,2.386,2.386h341.5c1.312,0,2.385-1.073,2.385-2.386v-13.466"
			/>
	</g>
	<g>
		<path fill="#354242" d="M80.139,324.379v11.895c0,1.313,1.074,2.386,2.387,2.386h6.285c1.312,0,2.386-1.073,2.386-2.386v-13.466"
			/>
	</g>
	<polygon fill="#354242" points="522.615,325.633 555.69,325.633 547.933,336.59 530.372,336.59 	"/>
	<path fill="#354242" d="M511.426,325.193h49.781l-2.385,4.76h-45.011L511.426,325.193z"/>
	<g>
		<g>
			<path fill="#D5D8DD" d="M606.371,319.825H92.388c-3.935,0-7.155-3.22-7.155-7.156V200.536c0-3.937,3.22-7.155,7.155-7.155
				h513.982c3.937,0,7.156,3.218,7.156,7.155v112.133C613.527,316.605,610.307,319.825,606.371,319.825L606.371,319.825z"/>
		</g>
		<g opacity="0.3">
			<path fill="#C4C4CD" d="M439.248,311.144c-2.624,0-5.6-1.979-6.614-4.4l-41.036-97.896c-1.014-2.42,0.303-4.398,2.927-4.398
				h202.18c2.624,0,4.771,2.146,4.771,4.771v97.152c0,2.624-2.147,4.771-4.771,4.771H439.248z"/>
		</g>
		<g opacity="0.3">
			<path fill="#C4C4CD" d="M362.344,204.449c2.624,0,5.601,1.979,6.615,4.399l41.038,97.897c1.013,2.421-0.303,4.4-2.927,4.4
				h-30.558c-2.624,0-5.6-1.979-6.614-4.4l-41.037-97.897c-1.015-2.42,0.302-4.399,2.926-4.399H362.344z"/>
		</g>
		<g opacity="0.3">
			<path fill="#C4C4CD" d="M106.216,204.45H277.52c2.624,0,5.6,1.979,6.614,4.399l41.037,97.897c1.015,2.421-0.302,4.4-2.926,4.4
				h-216.03c-2.625,0-4.771-2.146-4.771-4.771V209.22C101.445,206.597,103.592,204.449,106.216,204.45L106.216,204.45z"/>
		</g>
		<path fill="#485959" d="M85.233,322.808h528.294v-16.71H85.233V322.808z"/>
	</g>
	<path fill="#485959" d="M91.197,322.807H80.139V190.398h11.058V322.807z"/>
	<path fill="#485959" d="M80.139,319.229h533.388v7.145H80.139V319.229z"/>
	<g>
		<g>
			<g>
				<g>
					<path fill="#AACFD4" d="M368.69,364.406v-22.309c0-3.051,2.497-5.549,5.549-5.549h71.541c3.052,0,5.549,2.498,5.549,5.549
						v22.309c0,3.051-2.497,5.548-5.549,5.548h-71.541C371.187,369.953,368.69,367.456,368.69,364.406L368.69,364.406z"/>
				</g>
				<g opacity="0.6">
					<path fill="#FFFFFF" d="M374.239,346.109c-1.332,0-2.416-1.084-2.416-2.416v-1.596c0-1.332,1.084-2.416,2.416-2.416h71.541
						c1.333,0,2.416,1.084,2.416,2.416v1.596c0,1.332-1.084,2.416-2.416,2.416H374.239z"/>
				</g>
				<path opacity="0.6" fill="#BCBDBF" enable-background="new    " d="M374.239,366.193h71.541c3.052,0,5.552-2.494,5.552-5.546
					v3.759c0,3.053-2.501,5.546-5.552,5.546h-71.541c-3.052,0-5.546-2.493-5.546-5.546v-3.759
					C368.693,363.698,371.187,366.193,374.239,366.193z"/>
			</g>
		</g>
	</g>
	<g>
		<polygon fill="#485959" points="344.895,343.447 350.036,335.037 359.04,320.309 367.175,325.294 357.312,341.419 
			351.885,350.281 345.576,360.598 337.441,355.623 		"/>
		<polygon fill="#485959" points="262.146,344.448 267.31,336.016 276.923,320.309 282.41,323.672 287.909,320.309 297.891,336.624 
			303.914,346.488 309.508,355.623 301.373,360.598 297.772,354.717 290.938,343.555 282.41,329.622 274.383,342.742 
			268.861,351.76 263.458,360.598 255.312,355.623 		"/>
		<polygon fill="#485959" points="121.229,320.309 130.699,335.777 136.663,345.521 142.84,355.623 134.695,360.598 130.234,353.31 
			123.567,342.421 113.094,325.294 		"/>
		<polygon fill="#485959" points="177.703,344.281 182.868,335.85 192.373,320.309 199.077,324.41 205.779,320.309 215.141,335.61 
			221.093,345.344 227.391,355.623 219.245,360.598 214.629,353.048 207.986,342.206 199.077,327.631 189.964,342.516 
			184.454,351.521 178.908,360.598 170.76,355.623 		"/>
	</g>
	<path fill="#354242" d="M207.985,342.205l6.644,10.842c1.73-2.898,3.924-5.499,6.464-7.704l-5.951-9.733
		C212.506,337.53,210.109,339.748,207.985,342.205z M262.146,344.448c2.601,2.076,4.865,4.544,6.715,7.312l5.521-9.018
		c-2.075-2.505-4.461-4.771-7.072-6.728L262.146,344.448z"/>
	<path fill="#354242" d="M123.567,342.42l6.667,10.889c1.717-2.935,3.888-5.569,6.429-7.788l-5.964-9.744
		C128.075,337.697,125.677,339.939,123.567,342.42z M177.703,344.281c2.612,2.053,4.891,4.496,6.751,7.24l5.511-9.006
		c-2.1-2.48-4.473-4.723-7.097-6.666L177.703,344.281z"/>
	<path fill="#354242" d="M344.895,343.447c2.672,1.907,5.021,4.222,6.989,6.834l5.428-8.861c-2.171-2.398-4.604-4.532-7.276-6.382
		L344.895,343.447z M290.937,343.555l6.834,11.162c1.599-3.077,3.674-5.845,6.143-8.229l-6.022-9.863
		C295.315,338.652,292.977,340.978,290.937,343.555z"/>
	<g>
		<g>
			<path fill="#485959" d="M203.082,369.232c-0.033,1.359,0.01,2.707,0.121,4.033l8.84,0.215c-0.162-1.32-0.223-2.67-0.189-4.035
				c0.054-2.218,0.356-4.367,0.89-6.429c3.226-12.589,14.807-21.754,28.363-21.425c13.557,0.33,24.678,10.046,27.29,22.776
				c0.431,2.085,0.63,4.246,0.575,6.464c-0.032,1.367-0.159,2.711-0.387,4.021l8.84,0.215c0.176-1.317,0.284-2.663,0.316-4.021
				c0.054-2.198-0.082-4.358-0.4-6.46c-2.637-17.591-17.635-31.317-36.021-31.765s-34.034,12.537-37.522,29.978
				C203.377,364.883,203.136,367.032,203.082,369.232z"/>
			<g>
				<g>
					<path fill="#21211F" d="M208.094,369.351c-0.034,1.365,0.021,2.715,0.152,4.034l7.6,0.185
						c-0.187-1.313-0.267-2.664-0.233-4.036c0.332-13.669,11.727-24.519,25.402-24.185c13.676,0.332,24.53,11.721,24.198,25.39
						c-0.034,1.373-0.179,2.716-0.43,4.021l7.599,0.185c0.195-1.311,0.316-2.657,0.35-4.021
						c0.251-10.335-4.405-19.669-11.843-25.773c-5.377-4.418-12.206-7.134-19.69-7.316c-7.486-0.181-14.439,2.2-20.024,6.353
						C213.451,349.921,208.345,359.018,208.094,369.351z"/>
				</g>
			</g>
			<g>
				<path fill="#333332" d="M239.719,398.697c15.771,0.384,28.868-12.09,29.252-27.86c0.384-15.768-12.093-28.863-27.863-29.246
					c-15.772-0.384-28.869,12.091-29.252,27.856C211.471,385.219,223.948,398.314,239.719,398.697z"/>
				<path opacity="0.3" fill="#444856" enable-background="new    " d="M218.826,369.616c0.289-11.898,10.208-21.344,22.111-21.055
					c11.902,0.29,21.351,10.206,21.062,22.104c-0.289,11.901-10.208,21.349-22.11,21.06S218.538,381.518,218.826,369.616z"/>
				<path fill="#E5EBEF" d="M221.755,369.688c0.25-10.283,8.823-18.447,19.111-18.197c10.287,0.25,18.453,8.82,18.204,19.104
					c-0.25,10.286-8.823,18.452-19.11,18.202C229.672,388.547,221.505,379.975,221.755,369.688z"/>
			</g>
			<g>
				<g>
					<path fill="#A8AEB3" d="M225.438,365.263c1.596-4.82,5.486-8.571,10.359-9.984c1.49-0.437,3.073-0.654,4.709-0.615
						c1.637,0.039,3.207,0.334,4.674,0.844c4.733,1.628,8.407,5.477,9.809,10.283c0.437,1.496,0.655,3.078,0.615,4.722
						c-0.04,1.643-0.334,3.214-0.845,4.688c-1.618,4.694-5.435,8.343-10.189,9.759c-1.522,0.457-3.138,0.686-4.814,0.646
						c-1.675-0.04-3.285-0.349-4.784-0.879c-4.744-1.672-8.402-5.588-9.752-10.44c-0.405-1.435-0.599-2.951-0.561-4.521
						C224.697,368.192,224.969,366.68,225.438,365.263z"/>
				</g>
			</g>
			<path fill="#444856" d="M240.238,354.669c1.636,0,3.213,0.256,4.691,0.729c-0.939,1.623-2.509,2.758-4.507,2.71
				c-2.003-0.049-3.943-1.087-4.878-2.71C237.024,354.926,238.602,354.669,240.238,354.669z"/>
			<path fill="#444856" d="M239.844,381.932c2.082,0.05,3.861,1.271,4.726,3.027c-1.522,0.458-3.139,0.686-4.814,0.646
				c-1.675-0.04-3.285-0.349-4.784-0.879C235.92,383.014,237.761,381.881,239.844,381.932z"/>
			<path fill="#444856" d="M225.438,365.266c1.436,1.008,2.354,2.693,2.309,4.572s-1.045,3.511-2.527,4.446
				c-0.405-1.435-0.599-2.951-0.561-4.521C224.697,368.192,224.969,366.68,225.438,365.266z"/>
			<path fill="#444856" d="M254.989,365.792c0.437,1.495,0.654,3.077,0.615,4.721c-0.04,1.643-0.334,3.214-0.845,4.688
				c-1.612-0.972-2.674-2.761-2.625-4.771C252.184,368.412,253.33,366.686,254.989,365.792z"/>
			<path fill="#E5EBEF" d="M231.229,367.184c0.966-2.921,3.324-5.194,6.276-6.05c0.903-0.265,1.862-0.397,2.854-0.372
				c0.991,0.024,1.942,0.202,2.832,0.511c2.867,0.985,5.093,3.318,5.941,6.23c0.266,0.905,0.397,1.864,0.373,2.86
				c-0.024,0.995-0.203,1.946-0.512,2.84c-0.981,2.845-3.293,5.055-6.174,5.912c-0.923,0.276-1.902,0.416-2.917,0.392
				c-1.016-0.024-1.99-0.211-2.898-0.533c-2.875-1.012-5.092-3.385-5.909-6.324c-0.245-0.871-0.361-1.789-0.34-2.741
				C230.78,368.956,230.946,368.042,231.229,367.184z"/>
			<path fill="#444856" d="M236.385,368.908c0.407-1.227,1.398-2.183,2.64-2.544c0.38-0.111,0.782-0.167,1.198-0.159
				c0.417,0.011,0.817,0.085,1.19,0.214c1.206,0.412,2.142,1.39,2.499,2.612c0.111,0.381,0.167,0.783,0.157,1.201
				c-0.012,0.418-0.086,0.818-0.215,1.193c-0.413,1.194-1.386,2.125-2.597,2.485c-0.389,0.117-0.801,0.177-1.227,0.166
				c-0.428-0.01-0.837-0.088-1.219-0.223c-1.209-0.423-2.142-1.418-2.484-2.652c-0.104-0.364-0.154-0.75-0.144-1.149
				C236.194,369.653,236.263,369.268,236.385,368.908z"/>
			<path opacity="0.3" fill="#444856" enable-background="new    " d="M224.657,369.764v0.007l2.891,0.07v-0.009
				c0.031-1.272,0.252-2.505,0.635-3.657c1.299-3.92,4.463-6.974,8.423-8.119c1.211-0.357,2.497-0.531,3.831-0.498
				c1.326,0.033,2.61,0.268,3.803,0.684c3.847,1.323,6.834,4.453,7.975,8.365c0.358,1.213,0.531,2.505,0.499,3.839l-0.001,0.007
				l2.893,0.07v-0.008c0.04-1.644-0.178-3.226-0.615-4.721c-1.402-4.807-5.076-8.656-9.809-10.284
				c-1.467-0.509-3.037-0.805-4.674-0.843c-1.636-0.04-3.219,0.177-4.709,0.614c-4.873,1.413-8.763,5.164-10.359,9.984
				C224.969,366.68,224.697,368.192,224.657,369.764z"/>
		</g>
		<g>
			<path fill="#485959" d="M286.773,369.232c-0.033,1.359,0.01,2.707,0.122,4.033l8.839,0.215c-0.163-1.32-0.224-2.67-0.19-4.035
				c0.054-2.218,0.357-4.367,0.891-6.429c3.226-12.589,14.807-21.754,28.362-21.425c13.557,0.33,24.678,10.046,27.29,22.776
				c0.432,2.085,0.63,4.246,0.576,6.464c-0.033,1.367-0.16,2.711-0.387,4.021l8.84,0.215c0.175-1.317,0.283-2.663,0.315-4.021
				c0.055-2.198-0.082-4.358-0.399-6.46c-2.637-17.591-17.635-31.317-36.022-31.765c-18.385-0.447-34.032,12.537-37.521,29.978
				C287.068,364.883,286.828,367.032,286.773,369.232z"/>
			<g>
				<g>
					<path fill="#21211F" d="M291.785,369.351c-0.034,1.365,0.021,2.715,0.152,4.034l7.599,0.185
						c-0.186-1.313-0.267-2.664-0.233-4.036c0.332-13.669,11.728-24.519,25.403-24.185c13.675,0.332,24.53,11.721,24.198,25.39
						c-0.034,1.373-0.179,2.716-0.432,4.021l7.601,0.185c0.195-1.311,0.314-2.657,0.348-4.021
						c0.252-10.335-4.403-19.669-11.841-25.773c-5.377-4.418-12.206-7.134-19.691-7.316c-7.485-0.181-14.438,2.2-20.023,6.353
						C297.141,349.921,292.037,359.018,291.785,369.351z"/>
				</g>
			</g>
			<g>
				<path fill="#333332" d="M323.409,398.697c15.771,0.384,28.868-12.09,29.252-27.86c0.383-15.768-12.093-28.863-27.864-29.246
					c-15.771-0.384-28.869,12.091-29.252,27.856C295.162,385.219,307.637,398.314,323.409,398.697z"/>
				<path opacity="0.3" fill="#444856" enable-background="new    " d="M302.516,369.616c0.289-11.898,10.208-21.344,22.111-21.055
					c11.903,0.29,21.352,10.206,21.062,22.104c-0.29,11.901-10.208,21.349-22.11,21.06
					C311.676,391.436,302.228,381.518,302.516,369.616z"/>
				<path fill="#E5EBEF" d="M305.446,369.688c0.25-10.283,8.822-18.447,19.11-18.197c10.287,0.25,18.453,8.82,18.203,19.104
					c-0.249,10.286-8.821,18.452-19.108,18.202C313.363,388.547,305.196,379.975,305.446,369.688z"/>
			</g>
			<g>
				<g>
					<path fill="#A8AEB3" d="M309.128,365.263c1.596-4.82,5.487-8.571,10.36-9.984c1.49-0.437,3.073-0.654,4.709-0.615
						s3.207,0.334,4.673,0.844c4.734,1.628,8.408,5.477,9.809,10.283c0.438,1.496,0.655,3.078,0.615,4.722
						c-0.04,1.643-0.334,3.214-0.844,4.688c-1.619,4.694-5.436,8.343-10.19,9.759c-1.521,0.457-3.139,0.686-4.813,0.646
						s-3.285-0.349-4.784-0.879c-4.745-1.672-8.403-5.588-9.752-10.44c-0.406-1.435-0.599-2.951-0.562-4.521
						C308.386,368.192,308.661,366.68,309.128,365.263z"/>
				</g>
			</g>
			<path fill="#444856" d="M323.928,354.669c1.637,0,3.213,0.256,4.692,0.729c-0.94,1.623-2.509,2.758-4.507,2.71
				c-2.004-0.049-3.945-1.087-4.878-2.71C320.714,354.926,322.293,354.669,323.928,354.669z"/>
			<path fill="#444856" d="M323.534,381.932c2.083,0.05,3.862,1.271,4.726,3.027c-1.521,0.458-3.139,0.686-4.813,0.646
				s-3.285-0.349-4.784-0.879C319.61,383.014,321.453,381.881,323.534,381.932z"/>
			<path fill="#444856" d="M309.128,365.266c1.437,1.008,2.355,2.693,2.309,4.572c-0.046,1.879-1.045,3.511-2.526,4.446
				c-0.406-1.435-0.599-2.951-0.562-4.521C308.386,368.192,308.661,366.68,309.128,365.266z"/>
			<path fill="#444856" d="M338.679,365.792c0.438,1.495,0.655,3.077,0.615,4.721c-0.04,1.643-0.334,3.214-0.844,4.688
				c-1.613-0.972-2.674-2.761-2.625-4.771C335.874,368.412,337.021,366.686,338.679,365.792z"/>
			<path fill="#E5EBEF" d="M314.92,367.184c0.966-2.921,3.324-5.194,6.277-6.05c0.903-0.265,1.862-0.397,2.853-0.372
				c0.991,0.024,1.943,0.202,2.832,0.511c2.867,0.985,5.092,3.318,5.942,6.23c0.265,0.905,0.396,1.864,0.373,2.86
				c-0.025,0.995-0.203,1.946-0.512,2.84c-0.982,2.845-3.294,5.055-6.175,5.912c-0.923,0.276-1.901,0.416-2.917,0.392
				c-1.015-0.024-1.99-0.211-2.898-0.533c-2.875-1.012-5.092-3.385-5.908-6.324c-0.246-0.871-0.363-1.789-0.34-2.741
				C314.469,368.956,314.635,368.042,314.92,367.184z"/>
			<path fill="#444856" d="M320.075,368.908c0.407-1.227,1.397-2.183,2.639-2.544c0.38-0.111,0.782-0.167,1.199-0.159
				c0.417,0.011,0.817,0.085,1.19,0.214c1.206,0.412,2.142,1.39,2.499,2.612c0.11,0.381,0.167,0.783,0.155,1.201
				c-0.01,0.418-0.085,0.818-0.215,1.193c-0.412,1.194-1.384,2.125-2.596,2.485c-0.388,0.117-0.8,0.177-1.228,0.166
				c-0.427-0.01-0.837-0.088-1.219-0.223c-1.208-0.423-2.14-1.418-2.484-2.652c-0.103-0.364-0.152-0.75-0.143-1.149
				C319.884,369.653,319.954,369.268,320.075,368.908z"/>
			<path opacity="0.3" fill="#444856" enable-background="new    " d="M308.346,369.764v0.007l2.892,0.07v-0.009
				c0.031-1.272,0.252-2.505,0.635-3.657c1.298-3.92,4.462-6.974,8.421-8.119c1.212-0.357,2.498-0.531,3.832-0.498
				c1.327,0.033,2.611,0.268,3.803,0.684c3.848,1.323,6.834,4.453,7.976,8.365c0.357,1.213,0.53,2.505,0.499,3.839v0.007l2.891,0.07
				v-0.008c0.04-1.644-0.177-3.226-0.615-4.721c-1.401-4.807-5.075-8.656-9.809-10.284c-1.466-0.509-3.037-0.805-4.673-0.843
				c-1.636-0.04-3.219,0.177-4.709,0.614c-4.873,1.413-8.763,5.164-10.36,9.984C308.661,366.68,308.386,368.192,308.346,369.764z"/>
		</g>
		<g>
			<path fill="#485959" d="M119.392,369.232c-0.032,1.359,0.01,2.707,0.122,4.033l8.839,0.215c-0.162-1.32-0.224-2.67-0.19-4.035
				c0.054-2.218,0.357-4.367,0.89-6.429c3.227-12.589,14.808-21.754,28.363-21.425c13.558,0.33,24.679,10.046,27.29,22.776
				c0.431,2.085,0.63,4.246,0.576,6.464c-0.033,1.367-0.16,2.711-0.386,4.021l8.839,0.215c0.175-1.317,0.284-2.663,0.315-4.021
				c0.055-2.198-0.082-4.358-0.399-6.46c-2.638-17.591-17.636-31.317-36.021-31.765s-34.033,12.537-37.521,29.978
				C119.687,364.883,119.447,367.032,119.392,369.232z"/>
			<g>
				<g>
					<path fill="#21211F" d="M124.404,369.351c-0.034,1.365,0.021,2.715,0.152,4.034l7.6,0.185
						c-0.188-1.313-0.268-2.664-0.234-4.036c0.332-13.669,11.728-24.519,25.403-24.185c13.675,0.332,24.53,11.721,24.198,25.39
						c-0.034,1.373-0.18,2.716-0.431,4.021l7.6,0.185c0.194-1.311,0.315-2.657,0.349-4.021c0.251-10.335-4.405-19.669-11.841-25.773
						c-5.378-4.418-12.207-7.134-19.692-7.316c-7.485-0.181-14.438,2.2-20.023,6.353
						C129.76,349.921,124.656,359.018,124.404,369.351z"/>
				</g>
			</g>
			<g>
				<path fill="#333332" d="M156.028,398.697c15.771,0.384,28.869-12.09,29.252-27.86c0.383-15.768-12.093-28.863-27.864-29.246
					c-15.772-0.384-28.868,12.091-29.252,27.856C127.782,385.219,140.257,398.314,156.028,398.697z"/>
				<path opacity="0.3" fill="#444856" enable-background="new    " d="M135.135,369.616c0.29-11.898,10.208-21.345,22.111-21.055
					s21.351,10.206,21.062,22.104c-0.289,11.901-10.209,21.349-22.11,21.06C144.295,391.436,134.846,381.518,135.135,369.616z"/>
				<path fill="#E5EBEF" d="M138.066,369.688c0.249-10.283,8.821-18.447,19.109-18.197s18.454,8.82,18.204,19.104
					c-0.25,10.286-8.823,18.452-19.109,18.202C145.982,388.547,137.816,379.975,138.066,369.688z"/>
			</g>
			<g>
				<g>
					<path fill="#A8AEB3" d="M141.747,365.263c1.596-4.82,5.488-8.571,10.36-9.984c1.489-0.437,3.072-0.654,4.709-0.615
						c1.636,0.039,3.207,0.334,4.674,0.844c4.732,1.628,8.407,5.477,9.808,10.283c0.438,1.496,0.655,3.078,0.615,4.722
						c-0.04,1.643-0.334,3.214-0.844,4.688c-1.619,4.694-5.436,8.343-10.19,9.759c-1.521,0.457-3.138,0.686-4.813,0.646
						s-3.285-0.349-4.784-0.879c-4.745-1.672-8.403-5.588-9.752-10.44c-0.406-1.435-0.6-2.951-0.562-4.521
						C141.006,368.192,141.28,366.68,141.747,365.263z"/>
				</g>
			</g>
			<path fill="#444856" d="M156.548,354.669c1.637,0,3.213,0.256,4.692,0.729c-0.94,1.623-2.509,2.758-4.506,2.71
				c-2.004-0.049-3.945-1.087-4.879-2.71C153.333,354.926,154.912,354.669,156.548,354.669z"/>
			<path fill="#444856" d="M156.154,381.932c2.082,0.05,3.86,1.271,4.725,3.027c-1.521,0.458-3.138,0.686-4.813,0.646
				s-3.285-0.349-4.784-0.879C152.23,383.014,154.072,381.881,156.154,381.932z"/>
			<path fill="#444856" d="M141.747,365.266c1.436,1.008,2.354,2.693,2.309,4.572s-1.045,3.511-2.526,4.446
				c-0.406-1.435-0.6-2.951-0.562-4.521C141.006,368.192,141.28,366.68,141.747,365.266z"/>
			<path fill="#444856" d="M171.299,365.792c0.438,1.495,0.655,3.077,0.615,4.721c-0.04,1.643-0.334,3.214-0.844,4.688
				c-1.613-0.972-2.674-2.761-2.625-4.771C168.494,368.412,169.639,366.686,171.299,365.792z"/>
			<path fill="#E5EBEF" d="M147.539,367.184c0.966-2.921,3.325-5.194,6.277-6.05c0.902-0.265,1.861-0.396,2.854-0.372
				c0.99,0.024,1.942,0.202,2.831,0.511c2.868,0.985,5.093,3.318,5.942,6.23c0.266,0.905,0.396,1.864,0.373,2.86
				c-0.025,0.995-0.202,1.946-0.512,2.84c-0.981,2.845-3.294,5.055-6.175,5.912c-0.923,0.276-1.901,0.416-2.917,0.392
				c-1.014-0.024-1.989-0.211-2.897-0.533c-2.875-1.012-5.092-3.385-5.909-6.324c-0.246-0.871-0.362-1.789-0.34-2.741
				S147.255,368.042,147.539,367.184z"/>
			<path fill="#444856" d="M152.695,368.908c0.407-1.227,1.397-2.183,2.639-2.544c0.38-0.111,0.783-0.167,1.2-0.159
				c0.416,0.011,0.816,0.085,1.189,0.214c1.205,0.412,2.143,1.39,2.498,2.612c0.111,0.381,0.167,0.783,0.157,1.201
				c-0.011,0.418-0.085,0.818-0.215,1.193c-0.413,1.194-1.385,2.125-2.597,2.485c-0.389,0.117-0.799,0.177-1.227,0.166
				c-0.427-0.01-0.837-0.088-1.219-0.223c-1.209-0.423-2.141-1.418-2.484-2.652c-0.104-0.364-0.152-0.75-0.144-1.149
				C152.503,369.653,152.574,369.268,152.695,368.908z"/>
			<path opacity="0.3" fill="#444856" enable-background="new    " d="M140.966,369.764v0.007l2.892,0.07v-0.009
				c0.03-1.272,0.252-2.505,0.635-3.657c1.298-3.92,4.462-6.974,8.422-8.119c1.211-0.357,2.497-0.531,3.831-0.498
				c1.327,0.033,2.611,0.268,3.803,0.684c3.848,1.323,6.834,4.453,7.977,8.365c0.356,1.213,0.529,2.505,0.498,3.839v0.007
				l2.891,0.07v-0.008c0.04-1.644-0.177-3.226-0.615-4.721c-1.401-4.807-5.076-8.656-9.808-10.284
				c-1.467-0.509-3.038-0.805-4.674-0.843c-1.637-0.04-3.22,0.177-4.709,0.614c-4.872,1.413-8.764,5.164-10.36,9.984
				C141.28,366.68,141.006,368.192,140.966,369.764z"/>
		</g>
	</g>
	<path fill="#354242" d="M107,326.373v4.545h335.345v-4.545H107L107,326.373z"/>
</g>
<g>
	<rect x="460.173" y="342.211" fill="#485959" width="37.462" height="12.671"/>
	<path fill="#FAAE0E" d="M696.6,253.345c0,0,32.769-3.097,32.794-19.482c0.042-27.178-86.01-29.201-86.01-29.201h-5.288v43.089
		L696.6,253.345z"/>
	<path fill="#F9D513" d="M716.67,222.789c13.366,0,12.803,7.857,15.835,23.254h-94.408v-23.254
		C726.988,222.789,688.621,222.789,716.67,222.789z"/>
	<path fill="#F79523" d="M712.471,227.182c12.432,0,10.935,6.793,13.359,20.115h-87.734v-20.115
		C719.538,227.182,684.667,227.182,712.471,227.182z"/>
	<path fill="#FAAE0E" d="M660.427,233.863c-1.707,0-20.531,0-22.331,0v94.908h22.331V233.863z"/>
	<g>
		<rect x="719.367" y="325.534" fill="#FFFFFF" width="20.053" height="12.146"/>
	</g>
	<g>
		<g>
			<polyline fill="#485959" points="751.554,344.51 745.079,374.168 487.397,374.168 487.397,344.51 493.663,335.736 
				552.95,335.736 557.927,344.51 617.905,344.51 			"/>
		</g>
	</g>
	<polygon fill="#333332" points="571.991,344.51 556.884,344.51 556.884,362.592 560.015,369.523 571.991,369.523 	"/>
	<path fill="#FAAE0E" d="M725.473,235.999c7.563,0.901,16.887,8.491,19.419,21.324l1.059,5.733l7.783,42.033
		c0.088,0.621,0.175,1.24,0.257,1.86c1.097,8.297,1.673,16.181,1.673,22.892c0,6.668-0.019,8.215-0.024,10.396l-7.22,4.524
		l-93.535-10.025V233.762C728.982,233.762,703.435,233.373,725.473,235.999z"/>
	<path fill="#13495D" d="M741.84,263.033c1.254,0,4.104,0,4.104,0l0.006,0.024l5.345,28.875l2.438,13.158
		c0.088,0.621,0.175,1.24,0.257,1.86c0,0-2.406-0.438-4.085-0.771c-1.68-0.333-2.538-1.466-2.839-3.134
		c-0.827-4.481-2.556-13.842-4.129-22.383c-1.096-5.939-2.117-11.486-2.713-14.707C739.886,264.141,740.587,263.033,741.84,263.033z
		"/>
	<path fill="#18978C" d="M750.563,287.959c-1.699-2.291-3.4-4.581-4.96-6.676l-2.661-14.423c-0.138-0.735-0.2-1.442,0.896-1.442
		h2.551L750.563,287.959z"/>
	<g>
		<path fill="#FAAE0E" d="M756.462,317.675h-35.564c-1.723,0-3.133,1.41-3.133,3.134v12.55c0,1.723,1.395,3.333,3.101,3.578
			l20.225,2.908c1.706,0.245,4.512,0.444,6.234,0.444h9.138c1.724,0,3.134-1.408,3.134-3.133v-16.349
			C759.595,319.084,758.185,317.674,756.462,317.675L756.462,317.675z"/>
	</g>
	<path fill="#485959" d="M729.831,256.072l4.596,9.399h19.383c-1.3-6.604-4.447-12.739-5.808-17.598
		c0.324,1.987-93.992,1.422-93.992,1.422v1.881L729.831,256.072z"/>
	<g>
		<path fill="#F9D513" d="M655.68,337.681v-75.342c0-2.757,2.256-5.013,5.013-5.013h68.511c2.757,0,5.407,2.221,5.889,4.936
			l7.779,43.875c0.481,2.715,0.875,7.19,0.875,9.948c0,0,0,14.254,0,24.141"/>
		<path fill="none" stroke="#DD7D13" stroke-width="3.2553" stroke-miterlimit="10" d="M655.68,337.681v-75.342
			c0-2.757,2.256-5.013,5.013-5.013h68.511c2.757,0,5.407,2.221,5.889,4.936l7.779,43.875c0.481,2.715,0.875,7.19,0.875,9.948
			c0,0,0,14.254,0,24.141"/>
	</g>
	<g>
		<path fill="#F7BA11" d="M724.764,308.854c2.037,0.357,5.37,0.939,7.406,1.295l1.604,0.279c2.037,0.354,3.704,2.338,3.704,4.406
			v14.184c0,2.068-1.665,3.463-3.701,3.101l-16.714-2.976c-2.036-0.362-3.702-2.351-3.702-4.419v-4.153
			c0-2.067-1.661-4.08-3.691-4.473l-8.003-1.547c-2.029-0.393-3.69-2.405-3.69-4.474v-2.144c0-2.067,1.667-3.467,3.704-3.112
			L724.764,308.854z"/>
	</g>
	<g>
		<path fill="#13495D" d="M667.166,263.03h13.597c2.758,0,5.013,2.257,5.013,5.014v21.507c0,2.756-1.125,4.818-2.5,4.583
			s-4.723-0.812-7.44-1.278l-8.741-1.504c-2.718-0.467-4.94-3.104-4.94-5.863v-17.443
			C662.153,265.287,664.409,263.031,667.166,263.03L667.166,263.03z"/>
	</g>
	<g>
		<path fill="#13495D" d="M702.809,263.031h21.18c2.757,0,5.418,2.22,5.914,4.933l1.513,8.277c0.495,2.713,1.307,7.149,1.803,9.862
			l2.252,12.326c0.496,2.712-1.321,4.543-4.037,4.069l-0.08-0.014c-2.716-0.475-7.161-1.25-9.877-1.725l-18.742-3.274
			c-2.716-0.474-4.938-3.117-4.938-5.876v-23.566C697.796,265.287,700.052,263.031,702.809,263.031L702.809,263.031z"/>
	</g>
	
		<line fill="none" stroke="#DD7D13" stroke-width="3.1331" stroke-miterlimit="10" x1="691.834" y1="328.771" x2="691.834" y2="257.326"/>
	<g>
		<g>
			<path fill="#B76E1D" d="M689.636,326.263h-51.541v2.604h51.541c9.46,0,18.394,4.897,25.154,11.518
				c1.344,1.316,2.571,2.726,3.677,4.21h4.686c-1.601-2.506-3.497-4.84-5.663-6.961C710.003,330.3,700.112,326.264,689.636,326.263
				L689.636,326.263z"/>
		</g>
	</g>
	<g>
		<g>
			<polygon fill="#333332" points="724.118,344.704 755.47,344.704 755.47,340.226 713.314,340.226 697.167,341.583 
				647.537,334.988 647.537,344.704 672.695,344.704 			"/>
		</g>
		
			<image overflow="visible" enable-background="new    " width="333" height="129" xlink:href="7A2F9BEC67F9C222.png"  transform="matrix(-0.2361 0 0 0.2361 724.3777 328.3069)">
		</image>
	</g>
	<g>
		<g>
			<polygon fill="#333332" points="754.649,366.824 706.75,374.17 487.397,374.17 487.397,366.824 			"/>
		</g>
	</g>
	<path fill="#333332" d="M645.001,370.14c0,1.002,0.044,2.004,0.119,2.988c0.032,0.352,0.063,0.694,0.102,1.041h8.842
		c-0.069-0.466-0.125-0.941-0.163-1.41c-0.087-0.865-0.125-1.736-0.125-2.619c0-2.219,0.25-4.374,0.733-6.448
		c1.918-8.321,7.481-15.259,14.92-19.031h-14.345c-4.855,5.183-8.246,11.749-9.523,19.031
		C645.19,365.784,645.002,367.939,645.001,370.14z"/>
	<path fill="#DD3244" d="M638.095,329.434"/>
	<g>
		<path fill="#F7BA11" d="M700.301,344.658c-1.724,0-3.134,1.409-3.134,3.134v25.748c0,1.724,1.409,3.134,3.134,3.134h56.854
			c1.723,0,3.133-1.41,3.133-3.134v-25.748c0-1.725-1.41-3.134-3.133-3.134H700.301z"/>
	</g>
	<path fill="#333332" d="M728.478,365.646c-1.345-7.664-4.286-15.829-9.398-21.284h-9.821c7.828,3.972,7.783,12.526,9.802,21.286
		c0.507,2.183,0.771,4.451,0.771,6.787c0,0.93-5.363,1.846-5.456,2.756c-0.04,0.495-0.137,0.996-0.209,1.484h14.668
		c0.039-0.364,0.072-0.726,0.105-1.096c0.079-1.036,0.125-2.091,0.125-3.146C729.064,370.116,728.867,367.848,728.478,365.646z"/>
	<path fill="#1A3C52" d="M743.747,341.583"/>
	<g>
		<path fill="#F6F7F8" d="M752.684,351.186c-1.724,0-3.133,1.41-3.133,3.134v7.587c0,1.725,1.409,3.133,3.133,3.133h6.436
			c1.724,0,3.133-1.408,3.133-3.133v-7.587c0-1.724-1.408-3.134-3.133-3.134H752.684z"/>
	</g>
	<g>
		<path fill="#485959" d="M649.881,369.232c-0.032,1.359,0.01,2.707,0.121,4.033l8.84,0.215c-0.162-1.32-0.224-2.67-0.19-4.035
			c0.054-2.218,0.357-4.367,0.89-6.429c3.228-12.589,14.809-21.754,28.364-21.425c13.556,0.33,24.678,10.046,27.289,22.776
			c0.432,2.085,0.631,4.246,0.577,6.464c-0.033,1.367-0.16,2.711-0.386,4.021l8.839,0.215c0.176-1.317,0.284-2.663,0.316-4.021
			c0.054-2.198-0.083-4.358-0.4-6.46c-2.639-17.591-17.638-31.317-36.022-31.765s-34.033,12.537-37.521,29.978
			C650.177,364.883,649.935,367.032,649.881,369.232z"/>
		<g>
			<g>
				<path fill="#21211F" d="M654.894,369.351c-0.033,1.365,0.021,2.715,0.152,4.034l7.6,0.185c-0.188-1.313-0.269-2.664-0.234-4.036
					c0.332-13.669,11.729-24.519,25.403-24.185c13.675,0.332,24.53,11.721,24.198,25.39c-0.033,1.373-0.18,2.716-0.431,4.021
					l7.6,0.185c0.193-1.311,0.314-2.657,0.348-4.021c0.251-10.335-4.405-19.669-11.841-25.773
					c-5.378-4.418-12.206-7.134-19.692-7.316c-7.485-0.181-14.438,2.2-20.023,6.353
					C660.249,349.921,655.145,359.018,654.894,369.351z"/>
			</g>
		</g>
		<g>
			<path fill="#333332" d="M686.518,398.697c15.77,0.384,28.868-12.09,29.251-27.86c0.383-15.768-12.093-28.863-27.864-29.246
				c-15.771-0.384-28.869,12.091-29.252,27.856C658.27,385.219,670.746,398.314,686.518,398.697z"/>
			<path opacity="0.3" fill="#444856" enable-background="new    " d="M665.625,369.616c0.289-11.898,10.208-21.344,22.111-21.055
				c11.902,0.29,21.351,10.206,21.061,22.104c-0.288,11.901-10.208,21.349-22.109,21.06
				C674.785,391.436,665.336,381.518,665.625,369.616z"/>
			<path fill="#E5EBEF" d="M668.553,369.688c0.25-10.283,8.822-18.447,19.11-18.197s18.454,8.82,18.204,19.104
				c-0.249,10.286-8.822,18.452-19.109,18.202S668.304,379.975,668.553,369.688z"/>
		</g>
		<g>
			<g>
				<path fill="#A8AEB3" d="M672.237,365.263c1.596-4.82,5.487-8.571,10.36-9.984c1.489-0.437,3.072-0.654,4.709-0.615
					c1.635,0.039,3.206,0.334,4.673,0.844c4.733,1.628,8.407,5.477,9.809,10.283c0.438,1.496,0.655,3.078,0.615,4.722
					c-0.04,1.643-0.335,3.214-0.844,4.688c-1.619,4.694-5.437,8.343-10.19,9.759c-1.522,0.457-3.14,0.686-4.814,0.646
					c-1.676-0.04-3.285-0.349-4.784-0.879c-4.745-1.672-8.403-5.588-9.752-10.44c-0.406-1.435-0.6-2.951-0.562-4.521
					C671.496,368.192,671.768,366.68,672.237,365.263z"/>
			</g>
		</g>
		<path fill="#444856" d="M687.036,354.669c1.636,0,3.214,0.256,4.693,0.729c-0.94,1.623-2.509,2.758-4.507,2.71
			c-2.003-0.049-3.945-1.087-4.878-2.71C683.823,354.926,685.4,354.669,687.036,354.669z"/>
		<path fill="#444856" d="M686.642,381.932c2.083,0.05,3.86,1.271,4.726,3.027c-1.522,0.458-3.14,0.686-4.814,0.646
			c-1.676-0.04-3.285-0.349-4.784-0.879C682.719,383.014,684.56,381.881,686.642,381.932z"/>
		<path fill="#444856" d="M672.237,365.266c1.435,1.008,2.354,2.693,2.308,4.572c-0.045,1.879-1.045,3.511-2.526,4.446
			c-0.406-1.435-0.6-2.951-0.562-4.521C671.496,368.192,671.768,366.68,672.237,365.266z"/>
		<path fill="#444856" d="M701.788,365.792c0.438,1.495,0.655,3.077,0.615,4.721c-0.04,1.643-0.335,3.214-0.844,4.688
			c-1.613-0.972-2.674-2.761-2.625-4.771C698.982,368.412,700.129,366.686,701.788,365.792z"/>
		<path fill="#E5EBEF" d="M678.026,367.184c0.967-2.921,3.324-5.194,6.277-6.05c0.901-0.265,1.86-0.397,2.853-0.372
			c0.992,0.024,1.943,0.202,2.832,0.511c2.868,0.985,5.093,3.318,5.943,6.23c0.265,0.905,0.396,1.864,0.373,2.86
			c-0.024,0.995-0.202,1.946-0.512,2.84c-0.98,2.845-3.293,5.055-6.174,5.912c-0.923,0.276-1.901,0.416-2.917,0.392
			c-1.015-0.024-1.991-0.211-2.898-0.533c-2.875-1.012-5.093-3.385-5.909-6.324c-0.245-0.871-0.362-1.789-0.339-2.741
			C677.578,368.956,677.744,368.042,678.026,367.184z"/>
		<path fill="#444856" d="M683.182,368.908c0.406-1.227,1.397-2.183,2.639-2.544c0.38-0.111,0.783-0.167,1.2-0.159
			c0.416,0.011,0.815,0.085,1.189,0.214c1.206,0.412,2.143,1.39,2.499,2.612c0.112,0.381,0.167,0.783,0.157,1.201
			s-0.085,0.818-0.215,1.193c-0.413,1.194-1.385,2.125-2.596,2.485c-0.39,0.117-0.801,0.177-1.228,0.166
			c-0.427-0.01-0.837-0.088-1.219-0.223c-1.208-0.423-2.14-1.418-2.484-2.652c-0.103-0.364-0.152-0.75-0.143-1.149
			C682.993,369.653,683.062,369.268,683.182,368.908z"/>
		<path opacity="0.3" fill="#444856" enable-background="new    " d="M671.457,369.764v0.007l2.892,0.07v-0.009
			c0.029-1.272,0.251-2.505,0.634-3.657c1.298-3.92,4.462-6.974,8.421-8.119c1.212-0.357,2.498-0.531,3.832-0.498
			c1.327,0.033,2.61,0.268,3.803,0.684c3.848,1.323,6.834,4.453,7.976,8.365c0.358,1.213,0.53,2.505,0.499,3.839v0.007l2.891,0.07
			v-0.008c0.04-1.644-0.178-3.226-0.615-4.721c-1.401-4.807-5.076-8.656-9.809-10.284c-1.466-0.509-3.037-0.805-4.673-0.843
			c-1.637-0.04-3.22,0.177-4.709,0.614c-4.873,1.413-8.765,5.164-10.36,9.984C671.768,366.68,671.496,368.192,671.457,369.764z"/>
	</g>
	<g>
		<path fill="#485959" d="M465.743,369.232c-0.033,1.359,0.01,2.707,0.122,4.033l8.839,0.215c-0.162-1.32-0.223-2.67-0.189-4.035
			c0.055-2.218,0.356-4.367,0.89-6.429c3.227-12.589,14.808-21.754,28.364-21.425c13.557,0.33,24.678,10.046,27.29,22.776
			c0.432,2.085,0.63,4.246,0.576,6.464c-0.033,1.367-0.159,2.711-0.387,4.021l8.839,0.215c0.177-1.317,0.284-2.663,0.317-4.021
			c0.054-2.198-0.082-4.358-0.401-6.46c-2.637-17.591-17.635-31.317-36.021-31.765s-34.033,12.537-37.522,29.978
			C466.04,364.883,465.8,367.032,465.743,369.232z"/>
		<g>
			<g>
				<path fill="#21211F" d="M470.757,369.351c-0.033,1.365,0.021,2.715,0.152,4.034l7.599,0.185
					c-0.187-1.313-0.267-2.664-0.233-4.036c0.332-13.669,11.728-24.519,25.403-24.185c13.675,0.332,24.529,11.721,24.197,25.39
					c-0.032,1.373-0.179,2.716-0.43,4.021l7.599,0.185c0.195-1.311,0.316-2.657,0.35-4.021c0.251-10.335-4.405-19.669-11.841-25.773
					c-5.377-4.418-12.206-7.134-19.692-7.316c-7.485-0.181-14.439,2.2-20.024,6.353C476.113,349.921,471.01,359.018,470.757,369.351
					z"/>
			</g>
		</g>
		<g>
			<path fill="#333332" d="M502.383,398.697c15.77,0.384,28.867-12.09,29.251-27.86c0.383-15.768-12.094-28.863-27.864-29.246
				c-15.772-0.384-28.869,12.091-29.252,27.856C474.135,385.219,486.61,398.314,502.383,398.697z"/>
			<path opacity="0.3" fill="#444856" enable-background="new    " d="M481.488,369.616c0.289-11.898,10.208-21.345,22.111-21.055
				c11.902,0.29,21.351,10.206,21.062,22.104c-0.289,11.901-10.208,21.349-22.109,21.06
				C490.648,391.436,481.2,381.518,481.488,369.616z"/>
			<path fill="#E5EBEF" d="M484.417,369.688c0.25-10.283,8.824-18.447,19.111-18.197s18.454,8.82,18.204,19.104
				c-0.25,10.286-8.822,18.452-19.11,18.202S484.168,379.975,484.417,369.688z"/>
		</g>
		<g>
			<g>
				<path fill="#A8AEB3" d="M488.099,365.263c1.596-4.82,5.486-8.571,10.359-9.984c1.49-0.437,3.073-0.654,4.709-0.615
					s3.206,0.334,4.673,0.844c4.733,1.628,8.406,5.477,9.809,10.283c0.437,1.496,0.655,3.078,0.615,4.722
					c-0.04,1.643-0.334,3.214-0.844,4.688c-1.618,4.694-5.435,8.343-10.189,9.759c-1.522,0.457-3.139,0.686-4.814,0.646
					c-1.675-0.04-3.285-0.349-4.783-0.879c-4.745-1.672-8.403-5.588-9.753-10.44c-0.404-1.435-0.598-2.951-0.56-4.521
					C487.359,368.192,487.634,366.68,488.099,365.263z"/>
			</g>
		</g>
		<path fill="#444856" d="M502.9,354.669c1.636,0,3.213,0.256,4.692,0.729c-0.94,1.623-2.51,2.758-4.508,2.71
			c-2.003-0.049-3.943-1.087-4.878-2.71C499.686,354.926,501.264,354.67,502.9,354.669z"/>
		<path fill="#444856" d="M502.507,381.932c2.082,0.05,3.861,1.271,4.726,3.027c-1.522,0.458-3.139,0.686-4.814,0.646
			c-1.675-0.04-3.284-0.349-4.783-0.879C498.582,383.014,500.425,381.881,502.507,381.932z"/>
		<path fill="#444856" d="M488.1,365.266c1.435,1.008,2.354,2.693,2.308,4.572c-0.045,1.879-1.045,3.511-2.527,4.446
			c-0.404-1.435-0.598-2.951-0.56-4.521C487.359,368.192,487.634,366.68,488.1,365.266z"/>
		<path fill="#444856" d="M517.65,365.792c0.437,1.495,0.655,3.077,0.615,4.721c-0.04,1.643-0.334,3.214-0.844,4.688
			c-1.612-0.972-2.674-2.761-2.625-4.771C514.846,368.412,515.993,366.686,517.65,365.792z"/>
		<path fill="#E5EBEF" d="M493.89,367.184c0.967-2.921,3.324-5.194,6.276-6.05c0.903-0.265,1.861-0.397,2.854-0.372
			c0.992,0.024,1.942,0.202,2.832,0.511c2.868,0.985,5.094,3.318,5.942,6.23c0.267,0.905,0.397,1.864,0.373,2.86
			c-0.023,0.995-0.202,1.946-0.511,2.84c-0.98,2.845-3.293,5.055-6.174,5.912c-0.922,0.276-1.902,0.416-2.917,0.392
			s-1.99-0.211-2.899-0.533c-2.875-1.012-5.092-3.385-5.908-6.324c-0.245-0.871-0.362-1.789-0.34-2.741
			C493.442,368.956,493.608,368.042,493.89,367.184z"/>
		<path fill="#444856" d="M499.045,368.908c0.406-1.227,1.397-2.183,2.64-2.544c0.379-0.111,0.782-0.167,1.199-0.159
			c0.417,0.011,0.816,0.085,1.19,0.214c1.206,0.412,2.143,1.39,2.499,2.612c0.111,0.381,0.166,0.783,0.156,1.201
			c-0.009,0.418-0.085,0.818-0.214,1.193c-0.412,1.194-1.386,2.125-2.597,2.485c-0.388,0.117-0.799,0.177-1.226,0.166
			c-0.427-0.01-0.837-0.088-1.219-0.223c-1.209-0.423-2.142-1.418-2.484-2.652c-0.103-0.364-0.153-0.75-0.143-1.149
			C498.856,369.653,498.927,369.268,499.045,368.908z"/>
		<path opacity="0.3" fill="#444856" enable-background="new    " d="M487.318,369.764v0.007l2.891,0.07v-0.009
			c0.03-1.272,0.251-2.505,0.635-3.657c1.298-3.92,4.463-6.974,8.422-8.119c1.212-0.357,2.498-0.531,3.832-0.498
			c1.327,0.033,2.609,0.268,3.803,0.684c3.847,1.323,6.834,4.453,7.975,8.365c0.359,1.213,0.531,2.505,0.499,3.839v0.007l2.892,0.07
			v-0.008c0.04-1.644-0.179-3.226-0.615-4.721c-1.402-4.807-5.075-8.656-9.808-10.284c-1.467-0.509-3.037-0.805-4.674-0.843
			c-1.636-0.04-3.219,0.177-4.709,0.614c-4.873,1.413-8.764,5.164-10.359,9.984C487.634,366.68,487.359,368.192,487.318,369.764z"/>
	</g>
	<path fill="#197467" d="M709.075,269.297h21.073l5.32,29.133c0.494,2.712-1.323,4.543-4.036,4.065l-27.371-4.774v-23.41
		C704.061,271.553,706.317,269.297,709.075,269.297z"/>
	<g opacity="0.6">
		<path fill="#79C4CD" d="M731.794,300.654l-0.102-0.019c-0.351-0.064-0.729-0.129-1.11-0.191l-3.203-0.559l-27.702-30.924v-0.917
			c0-1.729,1.404-3.133,3.133-3.133h10.958l16.803,17.165l3.049,16.688c0.117,0.644,0.03,1.18-0.244,1.508
			c-0.29,0.348-0.763,0.42-1.108,0.42C732.114,300.693,731.956,300.68,731.794,300.654z"/>
	</g>
	<path fill="#F9D513" d="M638.095,256.071h113.208c-3.033-15.397-2.466-23.256-15.833-23.256c-28.049,0-8.481-0.001-97.375,0
		V256.071z"/>
	<g>
		<g>
			<g>
				<g>
					<path fill="#AACFD4" d="M565.048,342.097c0-3.051,2.497-5.549,5.55-5.549h61.999c3.052,0,5.549,2.498,5.549,5.549v22.309
						c0,3.051-2.497,5.548-5.549,5.548h-61.999c-3.053,0-5.55-2.497-5.55-5.548V342.097z"/>
				</g>
				<g opacity="0.6">
					<path fill="#FFFFFF" d="M570.597,346.109c-1.333,0-2.416-1.084-2.416-2.416v-1.596c0-1.332,1.084-2.416,2.416-2.416h61.999
						c1.333,0,2.416,1.084,2.416,2.416v1.596c0,1.332-1.084,2.416-2.416,2.416H570.597z"/>
				</g>
				<path opacity="0.6" fill="#BCBDBF" enable-background="new    " d="M570.596,366.193h61.999c3.052,0,5.552-2.494,5.552-5.546
					v3.759c0,3.053-2.501,5.546-5.552,5.546h-61.999c-3.052,0-5.545-2.493-5.545-5.546v-3.759
					C565.052,363.698,567.545,366.193,570.596,366.193z"/>
			</g>
		</g>
	</g>
	<rect x="460.173" y="337.823" fill="#485959" width="5.602" height="17.059"/>
	<g>
		<path fill="#F7BA11" d="M660.427,300.438c0-2.068,1.659-3.43,3.688-3.026l17.771,3.524c2.027,0.403,3.688,2.425,3.688,4.492v2.145
			c0,2.066-1.661,3.437-3.69,3.041l-17.767-3.458c-2.029-0.396-3.689-2.411-3.689-4.478V300.438z"/>
	</g>
	<g>
		<path fill="#18978C" d="M681.74,291.962l-17.707-19.77v-4.149c0-1.729,1.405-3.133,3.133-3.133h8.396l8.335,8.519v16.12
			c0,1.452-0.376,2.349-0.607,2.682L681.74,291.962z"/>
	</g>
</g>
</svg>
