<?xml version="1.0" encoding="utf-8"?>
<!-- Generator: Adobe Illustrator 16.0.4, SVG Export Plug-In . SVG Version: 6.00 Build 0)  -->
<!DOCTYPE svg PUBLIC "-//W3C//DTD SVG 1.1//EN" "http://www.w3.org/Graphics/SVG/1.1/DTD/svg11.dtd">
<svg version="1.1" id="Calque_1" xmlns="http://www.w3.org/2000/svg" xmlns:xlink="http://www.w3.org/1999/xlink" x="0px" y="0px"
	 width="683.062px" height="208.795px" viewBox="79.217 190.391 683.062 208.795"
	 enable-background="new 79.217 190.391 683.062 208.795" xml:space="preserve">
<g>
	<polygon fill="#485959" points="522.678,333.058 511.311,354.229 505.587,364.866 396.535,364.866 396.535,333.058 	"/>
	<g>
		<path fill="#354242" d="M396.577,322.808v13.466c0,1.312,1.073,2.386,2.385,2.386h341.5c1.312,0,2.386-1.072,2.386-2.386v-11.895"
			/>
	</g>
	<g>
		<path fill="#354242" d="M751.195,322.808v13.466c0,1.312,1.073,2.386,2.386,2.386h6.285c1.312,0,2.387-1.072,2.387-2.386v-11.895"
			/>
	</g>
	<polygon fill="#354242" points="312.02,336.59 294.459,336.59 286.702,325.633 319.777,325.633 	"/>
	<path fill="#354242" d="M328.581,329.952H283.57l-2.385-4.76h49.781L328.581,329.952z"/>
	<g>
		<g>
			<path fill="#D5D8DD" d="M236.021,319.825c-3.937,0-7.156-3.221-7.156-7.156V200.536c0-3.938,3.22-7.155,7.156-7.155h513.982
				c3.936,0,7.155,3.219,7.155,7.155v112.133c0,3.937-3.221,7.156-7.155,7.156H236.021L236.021,319.825z"/>
		</g>
		<g opacity="0.3">
			<path fill="#C4C4CD" d="M245.688,311.144c-2.624,0-4.771-2.147-4.771-4.771V209.22c0-2.624,2.147-4.771,4.771-4.771h202.18
				c2.624,0,3.94,1.979,2.927,4.398l-41.036,97.896c-1.015,2.421-3.99,4.4-6.614,4.4H245.688z"/>
		</g>
		<g opacity="0.3">
			<path fill="#C4C4CD" d="M510.604,204.449c2.624,0,3.94,1.979,2.926,4.399l-41.037,97.897c-1.015,2.421-3.99,4.4-6.614,4.4
				h-30.558c-2.624,0-3.939-1.979-2.927-4.4l41.038-97.897c1.015-2.42,3.991-4.399,6.615-4.399H510.604z"/>
		</g>
		<g opacity="0.3">
			<path fill="#C4C4CD" d="M736.177,204.449c2.624,0,4.771,2.147,4.771,4.771v97.157c0,2.624-2.146,4.771-4.771,4.771h-216.03
				c-2.624,0-3.94-1.979-2.926-4.4l41.037-97.897c1.015-2.42,3.99-4.399,6.614-4.399L736.177,204.449L736.177,204.449z"/>
		</g>
		<path fill="#485959" d="M757.159,306.098H228.865v16.71h528.294V306.098z"/>
	</g>
	<path fill="#485959" d="M751.195,190.398h11.058v132.409h-11.058V190.398z"/>
	<path fill="#485959" d="M762.253,326.373H228.865v-7.145h533.388V326.373z"/>
	<g>
		<g>
			<g>
				<g>
					<path fill="#AACFD4" d="M473.702,364.406c0,3.051-2.497,5.548-5.549,5.548h-71.541c-3.052,0-5.549-2.497-5.549-5.548v-22.309
						c0-3.051,2.497-5.549,5.549-5.549h71.541c3.052,0,5.549,2.498,5.549,5.549V364.406L473.702,364.406z"/>
				</g>
				<g opacity="0.6">
					<path fill="#FFFFFF" d="M396.612,346.109c-1.332,0-2.416-1.084-2.416-2.416v-1.596c0-1.332,1.083-2.416,2.416-2.416h71.541
						c1.332,0,2.416,1.084,2.416,2.416v1.596c0,1.332-1.084,2.416-2.416,2.416H396.612z"/>
				</g>
				<path opacity="0.6" fill="#BCBDBF" enable-background="new    " d="M473.699,360.647v3.759c0,3.053-2.494,5.546-5.546,5.546
					h-71.541c-3.051,0-5.552-2.493-5.552-5.546v-3.759c0,3.052,2.5,5.546,5.552,5.546h71.541
					C471.205,366.193,473.699,363.698,473.699,360.647z"/>
			</g>
		</g>
	</g>
	<g>
		<polygon fill="#485959" points="504.951,355.623 496.816,360.598 490.508,350.281 485.08,341.419 475.218,325.294 
			483.352,320.309 492.356,335.037 497.497,343.447 		"/>
		<polygon fill="#485959" points="587.08,355.623 578.934,360.598 573.531,351.76 568.01,342.742 559.982,329.622 551.454,343.555 
			544.62,354.717 541.019,360.598 532.885,355.623 538.478,346.488 544.501,336.624 554.483,320.309 559.982,323.672 
			565.469,320.309 575.082,336.016 580.246,344.448 		"/>
		<polygon fill="#485959" points="729.299,325.294 718.825,342.421 712.158,353.31 707.697,360.598 699.552,355.623 
			705.729,345.521 711.693,335.777 721.163,320.309 		"/>
		<polygon fill="#485959" points="671.632,355.623 663.484,360.598 657.938,351.521 652.428,342.516 643.315,327.631 
			634.406,342.206 627.763,353.048 623.147,360.598 615.001,355.623 621.3,345.344 627.251,335.61 636.613,320.309 643.315,324.41 
			650.019,320.309 659.524,335.85 664.689,344.281 		"/>
	</g>
	<path fill="#354242" d="M627.251,335.61l-5.951,9.733c2.54,2.205,4.733,4.806,6.464,7.704l6.644-10.842
		C632.283,339.748,629.886,337.53,627.251,335.61z M575.082,336.016c-2.611,1.957-4.997,4.223-7.072,6.728l5.521,9.018
		c1.85-2.769,4.114-5.236,6.715-7.312L575.082,336.016z"/>
	<path fill="#354242" d="M711.693,335.777l-5.964,9.744c2.541,2.219,4.712,4.854,6.429,7.788l6.667-10.889
		C716.716,339.939,714.317,337.697,711.693,335.777z M659.524,335.85c-2.624,1.943-4.997,4.186-7.097,6.666l5.511,9.006
		c1.86-2.744,4.139-5.188,6.751-7.24L659.524,335.85z"/>
	<path fill="#354242" d="M492.356,335.037c-2.672,1.85-5.105,3.983-7.276,6.382l5.428,8.861c1.969-2.612,4.317-4.927,6.989-6.834
		L492.356,335.037z M544.501,336.624l-6.022,9.863c2.469,2.385,4.544,5.152,6.143,8.229l6.834-11.162
		C549.415,340.978,547.077,338.652,544.501,336.624z"/>
	<g>
		<g>
			<path fill="#485959" d="M638.594,362.799c-3.488-17.44-19.137-30.425-37.522-29.978s-33.384,14.174-36.021,31.765
				c-0.318,2.102-0.454,4.262-0.4,6.46c0.032,1.358,0.141,2.704,0.316,4.021l8.84-0.215c-0.228-1.311-0.354-2.654-0.387-4.021
				c-0.055-2.218,0.145-4.379,0.575-6.464c2.612-12.73,13.733-22.446,27.29-22.776c13.557-0.329,25.138,8.836,28.363,21.425
				c0.533,2.062,0.836,4.211,0.89,6.429c0.033,1.365-0.027,2.715-0.189,4.035l8.84-0.215c0.111-1.326,0.154-2.674,0.121-4.033
				C639.256,367.032,639.015,364.883,638.594,362.799z"/>
			<g>
				<g>
					<path fill="#21211F" d="M621.219,344.186c-5.585-4.152-12.538-6.533-20.024-6.353c-7.484,0.183-14.313,2.898-19.69,7.316
						c-7.438,6.104-12.094,15.438-11.843,25.773c0.033,1.364,0.154,2.711,0.35,4.021l7.599-0.185
						c-0.251-1.306-0.396-2.648-0.43-4.021c-0.332-13.669,10.522-25.058,24.198-25.39c13.676-0.334,25.07,10.516,25.402,24.185
						c0.033,1.372-0.047,2.723-0.233,4.036l7.6-0.185c0.131-1.319,0.187-2.669,0.152-4.034
						C634.047,359.018,628.941,349.921,621.219,344.186z"/>
				</g>
			</g>
			<g>
				<path fill="#333332" d="M630.537,369.447c-0.383-15.766-13.479-28.24-29.252-27.856c-15.771,0.383-28.247,13.479-27.863,29.246
					c0.384,15.771,13.48,28.244,29.252,27.86C618.444,398.314,630.921,385.219,630.537,369.447z"/>
				<path opacity="0.3" fill="#444856" enable-background="new    " d="M602.504,391.725c-11.902,0.289-21.821-9.158-22.11-21.06
					c-0.289-11.897,9.159-21.813,21.062-22.104c11.903-0.289,21.822,9.156,22.111,21.055
					C623.854,381.518,614.406,391.436,602.504,391.725z"/>
				<path fill="#E5EBEF" d="M602.432,388.797c-10.287,0.25-18.86-7.916-19.11-18.202c-0.249-10.284,7.917-18.854,18.204-19.104
					c10.288-0.25,18.861,7.914,19.111,18.197C620.887,379.975,612.72,388.547,602.432,388.797z"/>
			</g>
			<g>
				<g>
					<path fill="#A8AEB3" d="M617.733,369.763c0.038,1.57-0.155,3.087-0.561,4.521c-1.35,4.853-5.008,8.769-9.752,10.44
						c-1.499,0.53-3.109,0.839-4.784,0.879c-1.677,0.04-3.292-0.188-4.814-0.646c-4.755-1.416-8.571-5.064-10.189-9.759
						c-0.511-1.474-0.805-3.045-0.845-4.688c-0.04-1.644,0.179-3.226,0.615-4.722c1.401-4.807,5.075-8.655,9.809-10.283
						c1.467-0.51,3.037-0.805,4.674-0.844c1.636-0.039,3.219,0.179,4.709,0.615c4.873,1.413,8.764,5.164,10.359,9.984
						C617.423,366.68,617.695,368.192,617.733,369.763z"/>
				</g>
			</g>
			<path fill="#444856" d="M606.847,355.398c-0.935,1.623-2.875,2.661-4.878,2.71c-1.998,0.048-3.567-1.087-4.507-2.71
				c1.479-0.473,3.056-0.729,4.691-0.729S605.368,354.926,606.847,355.398z"/>
			<path fill="#444856" d="M607.422,384.726c-1.499,0.53-3.109,0.839-4.784,0.879c-1.676,0.04-3.292-0.188-4.814-0.646
				c0.864-1.757,2.644-2.978,4.726-3.027C604.631,381.881,606.472,383.014,607.422,384.726z"/>
			<path fill="#444856" d="M617.733,369.763c0.038,1.57-0.155,3.087-0.561,4.521c-1.482-0.936-2.481-2.567-2.527-4.446
				s0.873-3.564,2.309-4.572C617.423,366.68,617.695,368.192,617.733,369.763z"/>
			<path fill="#444856" d="M590.258,370.43c0.049,2.01-1.013,3.799-2.625,4.771c-0.511-1.474-0.805-3.045-0.845-4.688
				c-0.039-1.644,0.179-3.226,0.615-4.721C589.062,366.686,590.208,368.412,590.258,370.43z"/>
			<path fill="#E5EBEF" d="M611.636,369.908c0.021,0.952-0.095,1.87-0.34,2.741c-0.817,2.939-3.034,5.312-5.909,6.324
				c-0.908,0.322-1.883,0.509-2.898,0.533c-1.015,0.024-1.994-0.115-2.917-0.392c-2.881-0.857-5.192-3.067-6.174-5.912
				c-0.309-0.894-0.487-1.845-0.512-2.84c-0.024-0.996,0.107-1.955,0.373-2.86c0.849-2.912,3.074-5.245,5.941-6.23
				c0.89-0.309,1.841-0.486,2.832-0.511c0.991-0.025,1.95,0.107,2.854,0.372c2.952,0.855,5.311,3.129,6.276,6.05
				C611.446,368.042,611.612,368.956,611.636,369.908z"/>
			<path fill="#444856" d="M606.208,370.053c0.011,0.399-0.039,0.785-0.144,1.149c-0.343,1.234-1.275,2.229-2.484,2.652
				c-0.382,0.135-0.791,0.213-1.219,0.223c-0.426,0.011-0.838-0.049-1.227-0.166c-1.211-0.36-2.184-1.291-2.597-2.485
				c-0.129-0.375-0.203-0.775-0.215-1.193c-0.01-0.418,0.046-0.82,0.157-1.201c0.357-1.223,1.293-2.2,2.499-2.612
				c0.373-0.129,0.773-0.203,1.19-0.214c0.416-0.008,0.818,0.048,1.198,0.159c1.241,0.361,2.232,1.317,2.64,2.544
				C606.129,369.268,606.198,369.653,606.208,370.053z"/>
			<path opacity="0.3" fill="#444856" enable-background="new    " d="M616.954,365.266c-1.597-4.82-5.486-8.571-10.359-9.984
				c-1.49-0.438-3.073-0.654-4.709-0.614c-1.637,0.038-3.207,0.334-4.674,0.843c-4.732,1.628-8.406,5.478-9.809,10.284
				c-0.438,1.495-0.655,3.077-0.615,4.721v0.008l2.893-0.07l-0.001-0.007c-0.032-1.334,0.141-2.626,0.499-3.839
				c1.141-3.912,4.128-7.042,7.975-8.365c1.192-0.416,2.477-0.65,3.803-0.684c1.334-0.033,2.62,0.141,3.831,0.498
				c3.96,1.146,7.124,4.199,8.423,8.119c0.383,1.152,0.604,2.385,0.635,3.657v0.009l2.891-0.07v-0.007
				C617.695,368.192,617.423,366.68,616.954,365.266z"/>
		</g>
		<g>
			<path fill="#485959" d="M554.903,362.799c-3.488-17.44-19.136-30.425-37.521-29.978c-18.388,0.447-33.386,14.174-36.022,31.765
				c-0.317,2.102-0.454,4.262-0.399,6.46c0.032,1.358,0.141,2.704,0.315,4.021l8.84-0.215c-0.227-1.311-0.354-2.654-0.387-4.021
				c-0.054-2.218,0.145-4.379,0.576-6.464c2.612-12.73,13.733-22.446,27.29-22.776c13.556-0.329,25.137,8.836,28.362,21.425
				c0.533,2.062,0.837,4.211,0.891,6.429c0.033,1.365-0.027,2.715-0.19,4.035l8.839-0.215c0.112-1.326,0.155-2.674,0.122-4.033
				C555.564,367.032,555.324,364.883,554.903,362.799z"/>
			<g>
				<g>
					<path fill="#21211F" d="M537.527,344.186c-5.585-4.152-12.538-6.533-20.023-6.353c-7.485,0.183-14.314,2.898-19.691,7.316
						c-7.438,6.104-12.093,15.438-11.841,25.773c0.033,1.364,0.152,2.711,0.348,4.021l7.601-0.185
						c-0.253-1.306-0.397-2.648-0.432-4.021c-0.332-13.669,10.523-25.058,24.198-25.39c13.676-0.334,25.071,10.516,25.403,24.185
						c0.033,1.372-0.048,2.723-0.233,4.036l7.599-0.185c0.132-1.319,0.187-2.669,0.152-4.034
						C550.355,359.018,545.251,349.921,537.527,344.186z"/>
				</g>
			</g>
			<g>
				<path fill="#333332" d="M546.847,369.447c-0.383-15.766-13.48-28.24-29.252-27.856c-15.771,0.383-28.247,13.479-27.864,29.246
					c0.384,15.771,13.481,28.244,29.252,27.86C534.755,398.314,547.23,385.219,546.847,369.447z"/>
				<path opacity="0.3" fill="#444856" enable-background="new    " d="M518.812,391.725c-11.902,0.289-21.82-9.158-22.11-21.06
					c-0.289-11.897,9.159-21.813,21.062-22.104c11.903-0.289,21.822,9.156,22.111,21.055
					C540.164,381.518,530.717,391.436,518.812,391.725z"/>
				<path fill="#E5EBEF" d="M518.741,388.797c-10.287,0.25-18.859-7.916-19.108-18.202c-0.25-10.284,7.916-18.854,18.203-19.104
					c10.288-0.25,18.86,7.914,19.11,18.197C537.196,379.975,529.029,388.547,518.741,388.797z"/>
			</g>
			<g>
				<g>
					<path fill="#A8AEB3" d="M534.044,369.763c0.037,1.57-0.155,3.087-0.562,4.521c-1.349,4.853-5.007,8.769-9.752,10.44
						c-1.499,0.53-3.109,0.839-4.784,0.879s-3.292-0.188-4.813-0.646c-4.755-1.416-8.571-5.064-10.19-9.759
						c-0.51-1.474-0.804-3.045-0.844-4.688c-0.04-1.644,0.178-3.226,0.615-4.722c1.4-4.807,5.074-8.655,9.809-10.283
						c1.466-0.51,3.037-0.805,4.673-0.844s3.219,0.179,4.709,0.615c4.873,1.413,8.765,5.164,10.36,9.984
						C533.731,366.68,534.006,368.192,534.044,369.763z"/>
				</g>
			</g>
			<path fill="#444856" d="M523.156,355.398c-0.933,1.623-2.874,2.661-4.878,2.71c-1.998,0.048-3.566-1.087-4.507-2.71
				c1.479-0.473,3.056-0.729,4.692-0.729C520.099,354.669,521.678,354.926,523.156,355.398z"/>
			<path fill="#444856" d="M523.73,384.726c-1.499,0.53-3.109,0.839-4.784,0.879s-3.292-0.188-4.813-0.646
				c0.863-1.757,2.643-2.978,4.726-3.027C520.939,381.881,522.782,383.014,523.73,384.726z"/>
			<path fill="#444856" d="M534.044,369.763c0.037,1.57-0.155,3.087-0.562,4.521c-1.481-0.936-2.48-2.567-2.526-4.446
				c-0.047-1.879,0.872-3.564,2.309-4.572C533.731,366.68,534.006,368.192,534.044,369.763z"/>
			<path fill="#444856" d="M506.566,370.43c0.049,2.01-1.012,3.799-2.625,4.771c-0.51-1.474-0.804-3.045-0.844-4.688
				c-0.04-1.644,0.178-3.226,0.615-4.721C505.371,366.686,506.518,368.412,506.566,370.43z"/>
			<path fill="#E5EBEF" d="M527.945,369.908c0.023,0.952-0.094,1.87-0.34,2.741c-0.816,2.939-3.033,5.312-5.908,6.324
				c-0.908,0.322-1.884,0.509-2.898,0.533c-1.016,0.024-1.994-0.115-2.917-0.392c-2.881-0.857-5.192-3.067-6.175-5.912
				c-0.309-0.894-0.486-1.845-0.512-2.84c-0.022-0.996,0.108-1.955,0.373-2.86c0.851-2.912,3.075-5.245,5.942-6.23
				c0.889-0.309,1.841-0.486,2.832-0.511c0.99-0.025,1.949,0.107,2.853,0.372c2.953,0.855,5.312,3.129,6.277,6.05
				C527.758,368.042,527.923,368.956,527.945,369.908z"/>
			<path fill="#444856" d="M522.518,370.053c0.01,0.399-0.04,0.785-0.143,1.149c-0.345,1.234-1.276,2.229-2.484,2.652
				c-0.382,0.135-0.792,0.213-1.219,0.223c-0.428,0.011-0.84-0.049-1.228-0.166c-1.212-0.36-2.184-1.291-2.596-2.485
				c-0.13-0.375-0.205-0.775-0.215-1.193c-0.012-0.418,0.045-0.82,0.155-1.201c0.357-1.223,1.293-2.2,2.499-2.612
				c0.373-0.129,0.773-0.203,1.19-0.214c0.417-0.008,0.819,0.048,1.199,0.159c1.241,0.361,2.231,1.317,2.639,2.544
				C522.438,369.268,522.509,369.653,522.518,370.053z"/>
			<path opacity="0.3" fill="#444856" enable-background="new    " d="M533.264,365.266c-1.598-4.82-5.487-8.571-10.36-9.984
				c-1.49-0.438-3.073-0.654-4.709-0.614c-1.636,0.038-3.207,0.334-4.673,0.843c-4.733,1.628-8.407,5.478-9.809,10.284
				c-0.438,1.495-0.655,3.077-0.615,4.721v0.008l2.891-0.07v-0.007c-0.031-1.334,0.142-2.626,0.499-3.839
				c1.142-3.912,4.128-7.042,7.976-8.365c1.191-0.416,2.476-0.65,3.803-0.684c1.334-0.033,2.62,0.141,3.832,0.498
				c3.959,1.146,7.123,4.199,8.421,8.119c0.383,1.152,0.604,2.385,0.635,3.657v0.009l2.892-0.07v-0.007
				C534.006,368.192,533.731,366.68,533.264,365.266z"/>
		</g>
		<g>
			<path fill="#485959" d="M722.284,362.799c-3.488-17.44-19.136-30.425-37.521-29.978s-33.384,14.174-36.021,31.765
				c-0.317,2.102-0.454,4.262-0.399,6.46c0.031,1.358,0.141,2.704,0.315,4.021l8.839-0.215c-0.226-1.311-0.353-2.654-0.386-4.021
				c-0.054-2.218,0.146-4.379,0.576-6.464c2.611-12.73,13.732-22.446,27.29-22.776c13.556-0.329,25.137,8.836,28.363,21.425
				c0.532,2.062,0.836,4.211,0.89,6.429c0.033,1.365-0.028,2.715-0.19,4.035l8.839-0.215c0.112-1.326,0.154-2.674,0.122-4.033
				C722.945,367.032,722.705,364.883,722.284,362.799z"/>
			<g>
				<g>
					<path fill="#21211F" d="M704.908,344.186c-5.586-4.152-12.538-6.533-20.023-6.353c-7.485,0.183-14.314,2.898-19.692,7.316
						c-7.436,6.104-12.092,15.438-11.841,25.773c0.033,1.364,0.154,2.711,0.349,4.021l7.6-0.185
						c-0.251-1.306-0.396-2.648-0.431-4.021c-0.332-13.669,10.523-25.058,24.198-25.39c13.676-0.334,25.071,10.516,25.403,24.185
						c0.033,1.372-0.047,2.723-0.234,4.036l7.6-0.185c0.131-1.319,0.187-2.669,0.152-4.034
						C717.736,359.018,712.633,349.921,704.908,344.186z"/>
				</g>
			</g>
			<g>
				<path fill="#333332" d="M714.228,369.447c-0.384-15.766-13.479-28.24-29.252-27.856c-15.771,0.383-28.247,13.479-27.864,29.246
					c0.383,15.771,13.481,28.244,29.252,27.86C702.135,398.314,714.61,385.219,714.228,369.447z"/>
				<path opacity="0.3" fill="#444856" enable-background="new    " d="M686.193,391.725c-11.901,0.289-21.821-9.158-22.11-21.06
					c-0.288-11.897,9.159-21.813,21.062-22.104s21.821,9.156,22.111,21.055C707.546,381.518,698.097,391.436,686.193,391.725z"/>
				<path fill="#E5EBEF" d="M686.122,388.797c-10.286,0.25-18.859-7.916-19.109-18.202c-0.25-10.284,7.916-18.854,18.204-19.104
					s18.86,7.914,19.109,18.197C704.576,379.975,696.41,388.547,686.122,388.797z"/>
			</g>
			<g>
				<g>
					<path fill="#A8AEB3" d="M701.425,369.763c0.038,1.57-0.155,3.087-0.562,4.521c-1.349,4.853-5.007,8.769-9.752,10.44
						c-1.499,0.53-3.108,0.839-4.784,0.879s-3.292-0.188-4.813-0.646c-4.755-1.416-8.571-5.064-10.19-9.759
						c-0.51-1.474-0.804-3.045-0.844-4.688c-0.04-1.644,0.178-3.226,0.615-4.722c1.4-4.807,5.075-8.655,9.808-10.283
						c1.467-0.51,3.038-0.805,4.674-0.844c1.637-0.039,3.22,0.179,4.709,0.615c4.872,1.413,8.765,5.164,10.36,9.984
						C701.112,366.68,701.386,368.192,701.425,369.763z"/>
				</g>
			</g>
			<path fill="#444856" d="M690.537,355.398c-0.934,1.623-2.875,2.661-4.879,2.71c-1.997,0.048-3.565-1.087-4.506-2.71
				c1.479-0.473,3.056-0.729,4.692-0.729C687.48,354.669,689.059,354.926,690.537,355.398z"/>
			<path fill="#444856" d="M691.111,384.726c-1.499,0.53-3.108,0.839-4.784,0.879s-3.292-0.188-4.813-0.646
				c0.864-1.757,2.643-2.978,4.725-3.027C688.32,381.881,690.162,383.014,691.111,384.726z"/>
			<path fill="#444856" d="M701.425,369.763c0.038,1.57-0.155,3.087-0.562,4.521c-1.481-0.936-2.48-2.567-2.526-4.446
				s0.873-3.564,2.309-4.572C701.112,366.68,701.386,368.192,701.425,369.763z"/>
			<path fill="#444856" d="M673.947,370.43c0.049,2.01-1.012,3.799-2.625,4.771c-0.51-1.474-0.804-3.045-0.844-4.688
				c-0.04-1.644,0.178-3.226,0.615-4.721C672.753,366.686,673.898,368.412,673.947,370.43z"/>
			<path fill="#E5EBEF" d="M695.326,369.908c0.022,0.952-0.094,1.87-0.34,2.741c-0.817,2.939-3.034,5.312-5.909,6.324
				c-0.908,0.322-1.884,0.509-2.897,0.533c-1.016,0.024-1.994-0.115-2.917-0.392c-2.881-0.857-5.193-3.067-6.175-5.912
				c-0.31-0.894-0.486-1.845-0.512-2.84c-0.023-0.996,0.107-1.955,0.373-2.86c0.85-2.912,3.074-5.245,5.942-6.23
				c0.889-0.309,1.841-0.486,2.831-0.511c0.992-0.024,1.951,0.107,2.854,0.372c2.952,0.855,5.312,3.129,6.277,6.05
				C695.137,368.042,695.303,368.956,695.326,369.908z"/>
			<path fill="#444856" d="M689.898,370.053c0.009,0.399-0.04,0.785-0.144,1.149c-0.344,1.234-1.275,2.229-2.484,2.652
				c-0.382,0.135-0.792,0.213-1.219,0.223c-0.428,0.011-0.838-0.049-1.227-0.166c-1.212-0.36-2.184-1.291-2.597-2.485
				c-0.13-0.375-0.204-0.775-0.215-1.193c-0.01-0.418,0.046-0.82,0.157-1.201c0.355-1.223,1.293-2.2,2.498-2.612
				c0.373-0.129,0.773-0.203,1.189-0.214c0.417-0.008,0.82,0.048,1.2,0.159c1.241,0.361,2.231,1.317,2.639,2.544
				C689.818,369.268,689.889,369.653,689.898,370.053z"/>
			<path opacity="0.3" fill="#444856" enable-background="new    " d="M700.645,365.266c-1.597-4.82-5.488-8.571-10.36-9.984
				c-1.489-0.438-3.072-0.654-4.709-0.614c-1.636,0.038-3.207,0.334-4.674,0.843c-4.731,1.628-8.406,5.478-9.808,10.284
				c-0.438,1.495-0.655,3.077-0.615,4.721v0.008l2.891-0.07v-0.007c-0.031-1.334,0.142-2.626,0.498-3.839
				c1.143-3.912,4.129-7.042,7.977-8.365c1.191-0.416,2.476-0.65,3.803-0.684c1.334-0.033,2.62,0.141,3.831,0.498
				c3.96,1.146,7.124,4.199,8.422,8.119c0.383,1.152,0.604,2.385,0.635,3.657v0.009l2.892-0.07v-0.007
				C701.386,368.192,701.112,366.68,700.645,365.266z"/>
		</g>
	</g>
	<path fill="#354242" d="M735.393,326.373H400.048v4.545h335.345L735.393,326.373L735.393,326.373z"/>
</g>
<g>
	<rect x="344.758" y="342.211" fill="#485959" width="37.462" height="12.671"/>
	<path fill="#FAAE0E" d="M204.296,247.75v-43.089h-5.288c0,0-86.052,2.023-86.01,29.201c0.025,16.386,32.794,19.482,32.794,19.482
		L204.296,247.75z"/>
	<path fill="#F9D513" d="M204.296,222.789v23.254h-94.408c3.032-15.396,2.469-23.254,15.835-23.254
		C153.771,222.789,115.404,222.789,204.296,222.789z"/>
	<path fill="#F79523" d="M204.296,227.182v20.115h-87.734c2.425-13.322,0.928-20.115,13.359-20.115
		C157.725,227.182,122.854,227.182,204.296,227.182z"/>
	<path fill="#FAAE0E" d="M181.966,328.771h22.331v-94.908c-1.8,0-20.624,0-22.331,0V328.771z"/>
	<g>
		<rect x="102.972" y="325.534" fill="#FFFFFF" width="20.053" height="12.146"/>
	</g>
	<g>
		<g>
			<polyline fill="#485959" points="224.487,344.51 284.465,344.51 289.442,335.736 348.729,335.736 354.995,344.51 
				354.995,374.168 97.313,374.168 90.838,344.51 			"/>
		</g>
	</g>
	<polygon fill="#333332" points="270.401,369.523 282.377,369.523 285.509,362.592 285.509,344.51 270.401,344.51 	"/>
	<path fill="#FAAE0E" d="M187.508,233.762v100.975l-93.535,10.025l-7.22-4.524c-0.006-2.181-0.024-3.728-0.024-10.396
		c0-6.711,0.576-14.595,1.673-22.892c0.082-0.62,0.169-1.239,0.257-1.86l7.783-42.033l1.059-5.733
		c2.532-12.833,11.855-20.423,19.419-21.324C138.957,233.373,113.41,233.762,187.508,233.762z"/>
	<path fill="#13495D" d="M102.168,265.957c-0.596,3.221-1.617,8.768-2.713,14.707c-1.573,8.541-3.302,17.901-4.129,22.383
		c-0.301,1.668-1.159,2.801-2.839,3.134c-1.679,0.332-4.085,0.771-4.085,0.771c0.082-0.62,0.169-1.239,0.257-1.86l2.438-13.158
		l5.345-28.875l0.006-0.024c0,0,2.851,0,4.104,0C101.805,263.033,102.506,264.141,102.168,265.957z"/>
	<path fill="#18978C" d="M96.003,265.418h2.551c1.097,0,1.034,0.707,0.896,1.442l-2.661,14.423c-1.56,2.095-3.261,4.385-4.96,6.676
		L96.003,265.418z"/>
	<g>
		<path fill="#FAAE0E" d="M85.93,317.674c-1.724,0-3.134,1.41-3.134,3.134v16.349c0,1.725,1.41,3.133,3.134,3.133h9.138
			c1.723,0,4.528-0.199,6.234-0.444l20.225-2.908c1.706-0.245,3.101-1.855,3.101-3.578v-12.55c0-1.724-1.41-3.134-3.133-3.134
			L85.93,317.674L85.93,317.674z"/>
	</g>
	<path fill="#485959" d="M188.383,251.176v-1.881c0,0-94.316,0.565-93.992-1.422c-1.36,4.858-4.508,10.994-5.808,17.598h19.383
		l4.596-9.399L188.383,251.176z"/>
	<g>
		<path fill="#F9D513" d="M98.645,340.226c0-9.887,0-24.141,0-24.141c0-2.758,0.394-7.233,0.875-9.948l7.779-43.875
			c0.481-2.715,3.132-4.936,5.889-4.936h68.511c2.757,0,5.013,2.256,5.013,5.013v75.342"/>
		<path fill="none" stroke="#DD7D13" stroke-width="3.2553" stroke-miterlimit="10" d="M98.645,340.226c0-9.887,0-24.141,0-24.141
			c0-2.758,0.394-7.233,0.875-9.948l7.779-43.875c0.481-2.715,3.132-4.936,5.889-4.936h68.511c2.757,0,5.013,2.256,5.013,5.013
			v75.342"/>
	</g>
	<g>
		<path fill="#F7BA11" d="M140.711,304.822c2.037-0.354,3.704,1.045,3.704,3.112v2.144c0,2.068-1.661,4.081-3.69,4.474l-8.003,1.547
			c-2.03,0.393-3.691,2.405-3.691,4.473v4.153c0,2.068-1.666,4.057-3.702,4.419l-16.714,2.976c-2.036,0.362-3.701-1.032-3.701-3.101
			v-14.184c0-2.068,1.667-4.052,3.704-4.406l1.604-0.279c2.036-0.355,5.369-0.938,7.406-1.295L140.711,304.822z"/>
	</g>
	<g>
		<path fill="#13495D" d="M175.226,263.031c2.757,0,5.013,2.257,5.013,5.014v17.443c0,2.759-2.223,5.396-4.94,5.863l-8.741,1.504
			c-2.718,0.467-6.065,1.043-7.44,1.278s-2.5-1.827-2.5-4.583v-21.507c0-2.757,2.255-5.014,5.013-5.014L175.226,263.031
			L175.226,263.031z"/>
	</g>
	<g>
		<path fill="#13495D" d="M139.583,263.031c2.757,0,5.014,2.257,5.014,5.014v23.566c0,2.759-2.223,5.402-4.938,5.876l-18.742,3.274
			c-2.716,0.475-7.161,1.25-9.877,1.725l-0.08,0.014c-2.716,0.474-4.533-1.357-4.037-4.069l2.252-12.326
			c0.496-2.713,1.308-7.149,1.803-9.862l1.513-8.277c0.496-2.713,3.157-4.933,5.914-4.933L139.583,263.031L139.583,263.031z"/>
	</g>
	
		<line fill="none" stroke="#DD7D13" stroke-width="3.1331" stroke-miterlimit="10" x1="150.558" y1="257.326" x2="150.558" y2="328.771"/>
	<g>
		<g>
			<path fill="#B76E1D" d="M152.756,326.264c-10.476,0-20.366,4.036-27.854,11.369c-2.166,2.121-4.062,4.455-5.663,6.961h4.686
				c1.105-1.484,2.333-2.894,3.677-4.21c6.761-6.62,15.694-11.518,25.154-11.518h51.541v-2.604L152.756,326.264L152.756,326.264z"/>
		</g>
	</g>
	<g>
		<g>
			<polygon fill="#333332" points="169.697,344.704 194.855,344.704 194.855,334.988 145.225,341.583 129.078,340.226 
				86.922,340.226 86.922,344.704 118.274,344.704 			"/>
		</g>
		
			<image overflow="visible" enable-background="new    " width="333" height="129" xlink:href="7A2F9BEC67F9C222.png"  transform="matrix(0.2361 0 0 0.2361 118.0144 328.3069)">
		</image>
	</g>
	<g>
		<g>
			<polygon fill="#333332" points="354.995,366.824 354.995,374.17 135.642,374.17 87.743,366.824 			"/>
		</g>
	</g>
	<path fill="#333332" d="M196.832,363.692c-1.277-7.282-4.668-13.849-9.523-19.031h-14.345c7.438,3.772,13.002,10.71,14.92,19.031
		c0.483,2.074,0.733,4.229,0.733,6.448c0,0.883-0.038,1.754-0.125,2.619c-0.038,0.469-0.094,0.944-0.163,1.41h8.842
		c0.038-0.347,0.069-0.689,0.102-1.041c0.075-0.984,0.119-1.986,0.119-2.988C197.39,367.939,197.202,365.784,196.832,363.692z"/>
	<path fill="#DD3244" d="M204.297,329.434"/>
	<g>
		<path fill="#F7BA11" d="M85.238,344.658c-1.723,0-3.133,1.409-3.133,3.134v25.748c0,1.724,1.41,3.134,3.133,3.134h56.854
			c1.725,0,3.134-1.41,3.134-3.134v-25.748c0-1.725-1.41-3.134-3.134-3.134H85.238z"/>
	</g>
	<path fill="#333332" d="M113.328,372.434c0,1.055,0.046,2.109,0.125,3.146c0.033,0.37,0.066,0.731,0.105,1.096h14.668
		c-0.072-0.488-0.169-0.989-0.209-1.484c-0.093-0.91-5.456-1.826-5.456-2.756c0-2.336,0.264-4.604,0.771-6.787
		c2.019-8.76,1.974-17.314,9.802-21.286h-9.821c-5.112,5.455-8.054,13.62-9.398,21.284
		C113.525,367.848,113.328,370.116,113.328,372.434z"/>
	<path fill="#1A3C52" d="M98.645,341.583"/>
	<g>
		<path fill="#F6F7F8" d="M83.272,351.186c-1.725,0-3.133,1.41-3.133,3.134v7.587c0,1.725,1.409,3.133,3.133,3.133h6.436
			c1.724,0,3.133-1.408,3.133-3.133v-7.587c0-1.724-1.409-3.134-3.133-3.134H83.272z"/>
	</g>
	<g>
		<path fill="#485959" d="M191.796,362.799c-3.488-17.44-19.137-30.425-37.521-29.978s-33.384,14.174-36.022,31.765
			c-0.317,2.102-0.454,4.262-0.4,6.46c0.032,1.358,0.141,2.704,0.316,4.021l8.839-0.215c-0.226-1.311-0.353-2.654-0.386-4.021
			c-0.054-2.218,0.146-4.379,0.577-6.464c2.611-12.73,13.733-22.446,27.289-22.776c13.556-0.329,25.137,8.836,28.364,21.425
			c0.532,2.062,0.836,4.211,0.89,6.429c0.033,1.365-0.028,2.715-0.19,4.035l8.84-0.215c0.111-1.326,0.153-2.674,0.121-4.033
			C192.457,367.032,192.216,364.883,191.796,362.799z"/>
		<g>
			<g>
				<path fill="#21211F" d="M174.419,344.186c-5.585-4.152-12.538-6.533-20.023-6.353c-7.486,0.183-14.314,2.898-19.692,7.316
					c-7.436,6.104-12.092,15.438-11.841,25.773c0.033,1.364,0.154,2.711,0.348,4.021l7.6-0.185
					c-0.251-1.306-0.397-2.648-0.431-4.021c-0.332-13.669,10.523-25.058,24.198-25.39c13.675-0.334,25.071,10.516,25.403,24.185
					c0.034,1.372-0.046,2.723-0.234,4.036l7.6-0.185c0.131-1.319,0.186-2.669,0.152-4.034
					C187.247,359.018,182.143,349.921,174.419,344.186z"/>
			</g>
		</g>
		<g>
			<path fill="#333332" d="M183.739,369.447c-0.383-15.766-13.48-28.24-29.252-27.856c-15.771,0.383-28.247,13.479-27.864,29.246
				c0.383,15.771,13.481,28.244,29.251,27.86C171.646,398.314,184.122,385.219,183.739,369.447z"/>
			<path opacity="0.3" fill="#444856" enable-background="new    " d="M155.705,391.725c-11.901,0.289-21.821-9.158-22.109-21.06
				c-0.29-11.897,9.158-21.813,21.061-22.104c11.903-0.289,21.822,9.156,22.111,21.055
				C177.056,381.518,167.607,391.436,155.705,391.725z"/>
			<path fill="#E5EBEF" d="M155.634,388.797c-10.287,0.25-18.86-7.916-19.109-18.202c-0.25-10.284,7.916-18.854,18.204-19.104
				s18.86,7.914,19.11,18.197C174.088,379.975,165.921,388.547,155.634,388.797z"/>
		</g>
		<g>
			<g>
				<path fill="#A8AEB3" d="M170.935,369.763c0.038,1.57-0.155,3.087-0.562,4.521c-1.349,4.853-5.007,8.769-9.752,10.44
					c-1.499,0.53-3.108,0.839-4.784,0.879c-1.675,0.04-3.292-0.188-4.814-0.646c-4.754-1.416-8.571-5.064-10.19-9.759
					c-0.509-1.474-0.804-3.045-0.844-4.688c-0.04-1.644,0.178-3.226,0.615-4.722c1.401-4.807,5.075-8.655,9.809-10.283
					c1.467-0.51,3.038-0.805,4.673-0.844c1.637-0.039,3.22,0.179,4.709,0.615c4.873,1.413,8.765,5.164,10.36,9.984
					C170.624,366.68,170.896,368.192,170.935,369.763z"/>
			</g>
		</g>
		<path fill="#444856" d="M160.048,355.398c-0.933,1.623-2.875,2.661-4.878,2.71c-1.998,0.048-3.566-1.087-4.507-2.71
			c1.479-0.473,3.058-0.729,4.693-0.729S158.569,354.926,160.048,355.398z"/>
		<path fill="#444856" d="M160.623,384.726c-1.499,0.53-3.108,0.839-4.784,0.879c-1.675,0.04-3.292-0.188-4.814-0.646
			c0.865-1.757,2.643-2.978,4.726-3.027C157.832,381.881,159.674,383.014,160.623,384.726z"/>
		<path fill="#444856" d="M170.935,369.763c0.038,1.57-0.155,3.087-0.562,4.521c-1.481-0.936-2.481-2.567-2.526-4.446
			c-0.047-1.879,0.873-3.564,2.308-4.572C170.624,366.68,170.896,368.192,170.935,369.763z"/>
		<path fill="#444856" d="M143.458,370.43c0.049,2.01-1.012,3.799-2.625,4.771c-0.509-1.474-0.804-3.045-0.844-4.688
			c-0.04-1.644,0.178-3.226,0.615-4.721C142.263,366.686,143.41,368.412,143.458,370.43z"/>
		<path fill="#E5EBEF" d="M164.837,369.908c0.023,0.952-0.094,1.87-0.339,2.741c-0.816,2.939-3.034,5.312-5.909,6.324
			c-0.907,0.322-1.884,0.509-2.898,0.533c-1.016,0.024-1.994-0.115-2.917-0.392c-2.881-0.857-5.193-3.067-6.174-5.912
			c-0.31-0.894-0.487-1.845-0.512-2.84c-0.023-0.996,0.108-1.955,0.373-2.86c0.851-2.912,3.075-5.245,5.943-6.23
			c0.889-0.309,1.84-0.486,2.832-0.511c0.992-0.025,1.951,0.107,2.853,0.372c2.953,0.855,5.311,3.129,6.277,6.05
			C164.648,368.042,164.814,368.956,164.837,369.908z"/>
		<path fill="#444856" d="M159.409,370.053c0.01,0.399-0.04,0.785-0.143,1.149c-0.345,1.234-1.276,2.229-2.484,2.652
			c-0.382,0.135-0.792,0.213-1.219,0.223c-0.427,0.011-0.838-0.049-1.228-0.166c-1.211-0.36-2.183-1.291-2.596-2.485
			c-0.13-0.375-0.205-0.775-0.215-1.193s0.045-0.82,0.157-1.201c0.356-1.223,1.293-2.2,2.499-2.612
			c0.374-0.129,0.773-0.203,1.189-0.214c0.417-0.008,0.82,0.048,1.2,0.159c1.241,0.361,2.232,1.317,2.639,2.544
			C159.33,369.268,159.399,369.653,159.409,370.053z"/>
		<path opacity="0.3" fill="#444856" enable-background="new    " d="M170.155,365.266c-1.596-4.82-5.487-8.571-10.36-9.984
			c-1.489-0.438-3.072-0.654-4.709-0.614c-1.636,0.038-3.207,0.334-4.673,0.843c-4.732,1.628-8.407,5.478-9.809,10.284
			c-0.438,1.495-0.655,3.077-0.615,4.721v0.008l2.891-0.07v-0.007c-0.031-1.334,0.141-2.626,0.499-3.839
			c1.142-3.912,4.128-7.042,7.976-8.365c1.192-0.416,2.476-0.65,3.803-0.684c1.334-0.033,2.62,0.141,3.832,0.498
			c3.959,1.146,7.123,4.199,8.421,8.119c0.383,1.152,0.604,2.385,0.634,3.657v0.009l2.892-0.07v-0.007
			C170.896,368.192,170.624,366.68,170.155,365.266z"/>
	</g>
	<g>
		<path fill="#485959" d="M375.932,362.799c-3.489-17.44-19.137-30.425-37.522-29.978s-33.384,14.174-36.021,31.765
			c-0.319,2.102-0.455,4.262-0.401,6.46c0.033,1.358,0.141,2.704,0.317,4.021l8.839-0.215c-0.228-1.311-0.354-2.654-0.387-4.021
			c-0.054-2.218,0.145-4.379,0.576-6.464c2.612-12.73,13.733-22.446,27.29-22.776c13.557-0.329,25.138,8.836,28.364,21.425
			c0.533,2.062,0.835,4.211,0.89,6.429c0.033,1.365-0.027,2.715-0.189,4.035l8.839-0.215c0.112-1.326,0.155-2.674,0.122-4.033
			C376.593,367.032,376.352,364.883,375.932,362.799z"/>
		<g>
			<g>
				<path fill="#21211F" d="M358.556,344.186c-5.585-4.152-12.539-6.533-20.024-6.353c-7.486,0.183-14.315,2.898-19.692,7.316
					c-7.436,6.104-12.092,15.438-11.841,25.773c0.033,1.364,0.154,2.711,0.35,4.021l7.599-0.185
					c-0.251-1.306-0.397-2.648-0.43-4.021c-0.332-13.669,10.522-25.058,24.197-25.39c13.676-0.334,25.071,10.516,25.403,24.185
					c0.033,1.372-0.047,2.723-0.233,4.036l7.599-0.185c0.131-1.319,0.186-2.669,0.152-4.034
					C371.383,359.018,366.279,349.921,358.556,344.186z"/>
			</g>
		</g>
		<g>
			<path fill="#333332" d="M367.875,369.447c-0.383-15.766-13.479-28.24-29.252-27.856c-15.771,0.383-28.247,13.479-27.864,29.246
				c0.384,15.771,13.481,28.244,29.251,27.86C355.782,398.314,368.258,385.219,367.875,369.447z"/>
			<path opacity="0.3" fill="#444856" enable-background="new    " d="M339.841,391.725c-11.901,0.289-21.82-9.158-22.109-21.06
				c-0.289-11.897,9.159-21.813,21.062-22.104c11.903-0.29,21.822,9.156,22.111,21.055
				C361.192,381.518,351.744,391.436,339.841,391.725z"/>
			<path fill="#E5EBEF" d="M339.77,388.797c-10.288,0.25-18.86-7.916-19.11-18.202c-0.25-10.284,7.917-18.854,18.204-19.104
				s18.861,7.914,19.111,18.197C358.224,379.975,350.058,388.547,339.77,388.797z"/>
		</g>
		<g>
			<g>
				<path fill="#A8AEB3" d="M355.071,369.763c0.038,1.57-0.155,3.087-0.56,4.521c-1.35,4.853-5.008,8.769-9.753,10.44
					c-1.498,0.53-3.108,0.839-4.783,0.879c-1.676,0.04-3.292-0.188-4.814-0.646c-4.755-1.416-8.571-5.064-10.189-9.759
					c-0.51-1.474-0.804-3.045-0.844-4.688c-0.04-1.644,0.179-3.226,0.615-4.722c1.402-4.807,5.075-8.655,9.809-10.283
					c1.467-0.51,3.037-0.805,4.673-0.844s3.219,0.179,4.709,0.615c4.873,1.413,8.764,5.164,10.359,9.984
					C354.759,366.68,355.033,368.192,355.071,369.763z"/>
			</g>
		</g>
		<path fill="#444856" d="M344.185,355.398c-0.935,1.623-2.875,2.661-4.878,2.71c-1.998,0.048-3.567-1.087-4.508-2.71
			c1.479-0.473,3.057-0.729,4.692-0.729C341.128,354.67,342.706,354.926,344.185,355.398z"/>
		<path fill="#444856" d="M344.758,384.726c-1.499,0.53-3.108,0.839-4.783,0.879c-1.676,0.04-3.292-0.188-4.814-0.646
			c0.864-1.757,2.644-2.978,4.726-3.027C341.968,381.881,343.81,383.014,344.758,384.726z"/>
		<path fill="#444856" d="M355.071,369.763c0.038,1.57-0.155,3.087-0.56,4.521c-1.482-0.936-2.482-2.567-2.527-4.446
			c-0.046-1.879,0.873-3.564,2.308-4.572C354.759,366.68,355.033,368.192,355.071,369.763z"/>
		<path fill="#444856" d="M327.595,370.43c0.049,2.01-1.013,3.799-2.625,4.771c-0.51-1.474-0.804-3.045-0.844-4.688
			c-0.04-1.644,0.179-3.226,0.615-4.721C326.399,366.686,327.546,368.412,327.595,370.43z"/>
		<path fill="#E5EBEF" d="M348.973,369.908c0.022,0.952-0.095,1.87-0.34,2.741c-0.816,2.939-3.033,5.312-5.908,6.324
			c-0.909,0.322-1.885,0.509-2.899,0.533s-1.995-0.115-2.917-0.392c-2.881-0.857-5.193-3.067-6.174-5.912
			c-0.309-0.894-0.487-1.845-0.511-2.84c-0.024-0.996,0.106-1.955,0.373-2.86c0.849-2.912,3.074-5.245,5.942-6.23
			c0.89-0.309,1.84-0.486,2.832-0.511c0.992-0.025,1.95,0.107,2.854,0.372c2.952,0.855,5.31,3.129,6.276,6.05
			C348.784,368.042,348.95,368.956,348.973,369.908z"/>
		<path fill="#444856" d="M343.545,370.053c0.011,0.399-0.04,0.785-0.143,1.149c-0.343,1.234-1.275,2.229-2.484,2.652
			c-0.382,0.135-0.792,0.213-1.219,0.223c-0.427,0.011-0.838-0.049-1.226-0.166c-1.211-0.36-2.185-1.291-2.597-2.485
			c-0.129-0.375-0.205-0.775-0.214-1.193c-0.01-0.418,0.045-0.82,0.156-1.201c0.356-1.223,1.293-2.2,2.499-2.612
			c0.374-0.129,0.773-0.203,1.19-0.214c0.417-0.008,0.82,0.048,1.199,0.159c1.242,0.361,2.233,1.317,2.64,2.544
			C343.466,369.268,343.536,369.653,343.545,370.053z"/>
		<path opacity="0.3" fill="#444856" enable-background="new    " d="M354.292,365.266c-1.596-4.82-5.486-8.571-10.359-9.984
			c-1.49-0.438-3.073-0.654-4.709-0.614c-1.637,0.038-3.207,0.334-4.674,0.843c-4.732,1.628-8.405,5.478-9.808,10.284
			c-0.437,1.495-0.655,3.077-0.615,4.721v0.008l2.892-0.07v-0.007c-0.032-1.334,0.14-2.626,0.499-3.839
			c1.141-3.912,4.128-7.042,7.975-8.365c1.193-0.416,2.476-0.65,3.803-0.684c1.334-0.033,2.62,0.141,3.832,0.498
			c3.959,1.146,7.124,4.199,8.422,8.119c0.384,1.152,0.604,2.385,0.635,3.657v0.009l2.891-0.07v-0.007
			C355.033,368.192,354.759,366.68,354.292,365.266z"/>
	</g>
	<path fill="#197467" d="M138.331,274.311v23.41l-27.371,4.774c-2.713,0.478-4.53-1.354-4.036-4.065l5.32-29.133h21.073
		C136.075,269.297,138.331,271.553,138.331,274.311z"/>
	<g opacity="0.6">
		<path fill="#79C4CD" d="M110.126,300.693c-0.346,0-0.818-0.072-1.108-0.42c-0.274-0.328-0.361-0.864-0.244-1.508l3.049-16.688
			l16.803-17.165h10.958c1.729,0,3.133,1.404,3.133,3.133v0.917l-27.702,30.924l-3.203,0.559c-0.382,0.062-0.76,0.127-1.11,0.191
			l-0.102,0.019C110.436,300.68,110.278,300.693,110.126,300.693z"/>
	</g>
	<path fill="#F9D513" d="M204.297,232.815c-88.894-0.001-69.326,0-97.375,0c-13.367,0-12.8,7.858-15.833,23.256h113.208V232.815z"/>
	<g>
		<g>
			<g>
				<g>
					<path fill="#AACFD4" d="M277.344,364.406c0,3.051-2.497,5.548-5.55,5.548h-61.999c-3.052,0-5.549-2.497-5.549-5.548v-22.309
						c0-3.051,2.497-5.549,5.549-5.549h61.999c3.053,0,5.55,2.498,5.55,5.549V364.406z"/>
				</g>
				<g opacity="0.6">
					<path fill="#FFFFFF" d="M209.796,346.109c-1.332,0-2.416-1.084-2.416-2.416v-1.596c0-1.332,1.083-2.416,2.416-2.416h61.999
						c1.332,0,2.416,1.084,2.416,2.416v1.596c0,1.332-1.083,2.416-2.416,2.416H209.796z"/>
				</g>
				<path opacity="0.6" fill="#BCBDBF" enable-background="new    " d="M277.341,360.647v3.759c0,3.053-2.493,5.546-5.545,5.546
					h-61.999c-3.051,0-5.552-2.493-5.552-5.546v-3.759c0,3.052,2.5,5.546,5.552,5.546h61.999
					C274.847,366.193,277.341,363.698,277.341,360.647z"/>
			</g>
		</g>
	</g>
	<rect x="376.618" y="337.823" fill="#485959" width="5.602" height="17.059"/>
	<g>
		<path fill="#F7BA11" d="M181.966,302.678c0,2.066-1.66,4.082-3.689,4.478l-17.767,3.458c-2.029,0.396-3.69-0.975-3.69-3.041
			v-2.145c0-2.067,1.66-4.089,3.688-4.492l17.771-3.524c2.028-0.403,3.688,0.958,3.688,3.026V302.678z"/>
	</g>
	<g>
		<path fill="#18978C" d="M159.102,292.231c-0.231-0.333-0.607-1.229-0.607-2.682v-16.12l8.335-8.519h8.396
			c1.728,0,3.133,1.404,3.133,3.133v4.149l-17.707,19.77L159.102,292.231z"/>
	</g>
</g>
</svg>
