<?xml version="1.0" standalone="no"?>
<!DOCTYPE svg PUBLIC "-//W3C//DTD SVG 20010904//EN"
 "http://www.w3.org/TR/2001/REC-SVG-20010904/DTD/svg10.dtd">
<svg version="1.0" xmlns="http://www.w3.org/2000/svg"
 width="346.000000pt" height="346.000000pt" viewBox="0 0 346.000000 346.000000"
 preserveAspectRatio="xMidYMid meet">
<metadata>
Created by potrace 1.11, written by Peter Selinger 2001-2013
</metadata>
<g transform="translate(0.000000,346.000000) scale(0.100000,-0.100000)"
fill="#000000" stroke="none">
<path d="M3045 3124 c-33 -14 -105 -43 -160 -65 -55 -22 -119 -49 -142 -60
-24 -10 -47 -19 -53 -19 -6 0 -18 -5 -28 -10 -18 -11 -530 -220 -538 -220 -2
0 -23 -9 -47 -19 -23 -11 -161 -68 -307 -127 -146 -59 -350 -142 -455 -184
-424 -173 -1252 -509 -1278 -519 -16 -6 -26 -15 -23 -20 4 -5 116 -77 251
-161 218 -135 266 -170 236 -170 -19 0 -272 -260 -330 -338 -69 -95 -134 -221
-155 -302 -22 -85 -14 -196 19 -261 65 -131 237 -231 440 -255 28 -4 70 -9 95
-13 127 -19 411 1 625 44 44 9 92 18 107 21 14 3 74 18 132 33 l106 29 72 -95
c39 -52 75 -90 80 -85 4 4 37 66 72 138 35 71 69 134 77 140 8 6 37 19 64 29
71 25 315 136 410 186 484 253 871 575 1042 866 58 100 85 183 89 279 4 101
-8 148 -59 221 -74 105 -247 189 -432 209 -27 3 -57 8 -65 10 -10 3 -12 2 -5
-4 6 -6 26 -12 45 -15 104 -14 219 -63 288 -123 235 -202 103 -556 -348 -935
-145 -122 -372 -267 -593 -380 -123 -63 -339 -160 -345 -155 -1 2 263 532 587
1180 324 647 588 1176 587 1176 0 -1 -28 -12 -61 -26z m-2370 -1658 c39 -25
113 -70 165 -102 52 -31 98 -62 102 -68 3 -6 82 -110 175 -231 92 -121 175
-230 183 -242 8 -11 40 -54 71 -94 78 -103 77 -96 17 -108 -29 -6 -64 -14 -78
-16 -14 -3 -68 -12 -120 -20 -317 -47 -574 -35 -745 38 -236 99 -304 290 -189
533 44 93 134 218 223 309 84 85 64 85 196 1z"/>
<path d="M2838 2403 c6 -2 18 -2 25 0 6 3 1 5 -13 5 -14 0 -19 -2 -12 -5z"/>
</g>
</svg>
