<svg width="840" height="360" viewBox="0 0 840 360" xmlns="http://www.w3.org/2000/svg"><title>lgg-logo</title><g fill="none" fill-rule="evenodd"><path d="M583.737 155.157c0-55.9 45.248-101.222 101.072-101.222v-41.78c-78.86 0-142.796 64.025-142.796 143.002h41.724zm101.07 101.218c55.818 0 101.071-45.321 101.071-101.216h41.718c0 78.977-63.923 142.996-142.79 142.996v-41.78z" fill="#F18700"/><path d="M614.585 188.859s-14.131 1.252-14.131-7.076c0-8.317 17.041-16.224 42.38-16.224 7.574 0 15.568 1.6 23.983 3.827-14.725 10.586-31.983 17.792-52.232 19.473m131.296-15.393c-18.83 0-35.216-4.272-50.567-9.085 27.792-29.234 51.39-78.097 51.818-156.112 0 0-13.084 99.467-67.986 150.903-13.84-4.428-27.228-8.18-41.297-8.18-34.485 0-52.77 18.729-52.77 32.043 0 13.315 23.276 19.554 34.918 19.554 15.283 0 40.603-7.504 64.642-28.068 14.992 4.421 31.216 8.818 48.777 8.818 35.315 0 39.891-15.287 39.891-15.287s-11.635 5.414-27.426 5.414m-628.515 49.879v16.973H35.844v-85.625h29.915v68.652zm4.869 16.978h29.916v-85.631h-29.916zm65.981-69.033v17.352h48.622v16.1h-48.622v18.976h61.706v16.602h-91.615v-85.63h91.615v16.601zm117.56 39.196V194.51h52.728v45.811h-13.648l-4.298-9.86c-9.542 7.74-20.014 11.107-34.968 11.107-37.588 0-53.106-20.844-53.106-43.312 0-23.219 17.01-44.819 55.719-44.819 27.674 0 46.375 11.237 50.3 29.34l-28.416 2.617c-1.313-8.614-8.23-15.851-22.627-15.851-21.128 0-24.311 18.35-24.311 28.961 0 11.107 4.675 26.834 25.611 26.834 13.097 0 22.07-6.114 21.327-14.852h-24.311zm95.504-39.196v17.352h48.616v16.1H401.28v18.976h61.7v16.602h-91.616v-85.63h91.616v16.601zM130.038 341.297h-28.98l-7.035-16.9H56.832l-7.208 16.9H26l36.857-82.215h31.166l36.015 82.215zm-42.214-32l-12.23-28.887-12.236 28.887h24.466zm47.1 32h26.8v-82.214h-26.8zm65.092 0H173.21v-82.215h48.418c10.217 0 20.602.118 29.475 4.186 9.394 4.44 14.577 12.466 14.577 20.497 0 9.352-7.53 17.978-19.933 21.215l21.277 36.317H237.2l-17.586-32.478h-19.599v32.478zm0-46.624h14.738c5.53 0 11.561.36 16.422-1.68 4.354-1.917 6.7-5.75 6.7-9.346 0-3.237-2.68-6.71-6.539-8.39-4.52-2.035-12.223-1.557-17.252-1.557h-14.069v20.973zm99.996 46.624h-26.8v-82.215h43.222c11.227 0 21.444 0 30.993 4.67 9.715 4.918 14.91 11.982 14.91 20.496 0 7.79-3.857 15.703-12.396 20.85-9.883 5.873-20.447 5.761-32.671 5.761h-17.258v30.438zm15.078-45.427c6.372 0 11.728 0 16.422-3.59 2.514-2.04 3.679-4.676 3.679-7.312 0-3.237-1.84-6.592-5.524-8.633-4.186-2.276-9.716-2.276-14.738-2.276h-14.917v21.811h15.078zm63.415 33.682c-8.385-8.509-12.063-19.176-12.063-29.483 0-21.81 15.246-42.19 49.248-42.19 15.24 0 27.308 3.598 36.522 12.584 8.212 8.031 12.398 19.659 12.398 29.606 0 9.346-3.518 20.732-10.887 28.521-8.88 9.352-22.447 13.904-38.033 13.904-15.574 0-28.138-3.832-37.185-12.942m19.766-46.624c-2.688 4.912-3.685 11.988-3.685 17.141 0 10.307 2.174 26.723 21.104 26.723 9.214 0 14.242-3.231 17.252-9.346 2.681-5.036 3.523-11.863 3.523-17.259 0-5.997-.842-13.06-4.192-18.58-3.344-5.513-8.205-8.025-16.583-8.025-9.208 0-14.236 3.355-17.42 9.346m106.034 58.369h-26.8v-82.215h48.411c10.218 0 20.602.118 29.482 4.186 9.381 4.44 14.577 12.466 14.577 20.497 0 9.352-7.543 17.978-19.94 21.215l21.283 36.317H541.49l-17.58-32.478h-19.605v32.478zm0-46.624h14.738c5.536 0 11.56.36 16.416-1.68 4.365-1.917 6.706-5.75 6.706-9.346 0-3.237-2.675-6.71-6.533-8.39-4.52-2.035-12.224-1.557-17.252-1.557h-14.075v20.973zm151.411-19.295h-28.813V341.3h-26.807v-65.923h-29.147V259.08h84.767z" fill="#0E64AE"/></g></svg>