<?xml version="1.0" encoding="utf-8"?>
<!-- Generator: Adobe Illustrator 16.0.4, SVG Export Plug-In . SVG Version: 6.00 Build 0)  -->
<!DOCTYPE svg PUBLIC "-//W3C//DTD SVG 1.1//EN" "http://www.w3.org/Graphics/SVG/1.1/DTD/svg11.dtd">
<svg version="1.1" xmlns="http://www.w3.org/2000/svg" xmlns:xlink="http://www.w3.org/1999/xlink" x="0px" y="0px" width="960px"
	 height="560px" viewBox="0 0 960 560" enable-background="new 0 0 960 560" xml:space="preserve">
<g id="Calque_4">
	<path fill="#D9272E" d="M539.131,217.376c23.01,0.095,39.855,6.42,45.311,19.052c11.221,25.989-30.082,68.816-92.247,95.647
		c-62.166,26.837-121.661,27.514-132.876,1.524c-11.073-25.65,29.01-67.688,89.814-94.578c-0.819,0.344-1.635,0.694-2.457,1.044
		c-68.418,29.531-113.932,76.542-101.65,104.986c12.281,28.453,77.701,27.569,146.121-1.958
		c68.418-29.543,113.934-76.542,101.646-104.992C586.527,223.583,566.416,216.706,539.131,217.376z"/>
</g>
<g id="Calque_5">
	<polygon fill="#E85F53" points="412.045,299.098 466.138,370.263 569.682,163.334 568.156,164.115 	"/>
	<polygon fill="#D9272E" points="343.025,255.676 412.084,298.539 412.045,299.098 568.156,164.115 	"/>
</g>
</svg>
