<?xml version="1.0" encoding="utf-8"?>
<!-- Generator: Adobe Illustrator 16.0.4, SVG Export Plug-In . SVG Version: 6.00 Build 0)  -->
<!DOCTYPE svg PUBLIC "-//W3C//DTD SVG 1.1//EN" "http://www.w3.org/Graphics/SVG/1.1/DTD/svg11.dtd">
<svg version="1.1" id="Calque_1" xmlns="http://www.w3.org/2000/svg" xmlns:xlink="http://www.w3.org/1999/xlink" x="0px" y="0px"
	 width="298.5px" height="304.5px" viewBox="0 0 298.5 304.5" enable-background="new 0 0 298.5 304.5" xml:space="preserve">
<title>lgg-logo</title>
<path fill="#F18700" d="M47.703,154.157c0-55.9,45.246-101.222,101.067-101.222v-41.78C69.914,11.155,5.981,75.18,5.981,154.157
	H47.703z M148.768,255.375c55.815,0,101.066-45.32,101.066-101.216h41.716c0,78.978-63.92,142.996-142.783,142.996L148.768,255.375
	L148.768,255.375z"/>
<path fill="#0E64AE" d="M78.55,187.859c0,0-14.131,1.252-14.131-7.076c0-8.317,17.04-16.224,42.378-16.224
	c7.573,0,15.567,1.6,23.981,3.827C116.055,178.972,98.798,186.178,78.55,187.859 M209.84,172.466
	c-18.829,0-35.215-4.271-50.565-9.085c27.791-29.233,51.387-78.097,51.816-156.111c0,0-13.083,99.467-67.983,150.902
	c-13.839-4.428-27.227-8.18-41.295-8.18c-34.484,0-52.768,18.729-52.768,32.043c0,13.315,23.275,19.554,34.917,19.554
	c15.282,0,40.601-7.504,64.639-28.067c14.992,4.421,31.214,8.817,48.774,8.817c35.314,0,39.89-15.287,39.89-15.287
	S225.63,172.466,209.84,172.466"/>
</svg>
